<svg xmlns="http://www.w3.org/2000/svg" xmlns:xlink="http://www.w3.org/1999/xlink" width="1024" zoomAndPan="magnify" viewBox="0 0 768 767.999994" height="1024" preserveAspectRatio="xMidYMid meet" version="1.0"><defs><clipPath id="id1"><path d="M 121.335938 76.800781 L 646.335938 76.800781 L 646.335938 664.050781 L 121.335938 664.050781 Z M 121.335938 76.800781 " clip-rule="nonzero"/></clipPath></defs><g clip-path="url(#id1)"><path fill="rgb(24.708557%, 50.979614%, 72.549438%)" d="M 646.257812 76.800781 L 121.414062 76.800781 L 167.722656 602.234375 L 383.835938 664.050781 L 599.949219 602.234375 Z M 646.257812 76.800781 " fill-opacity="1" fill-rule="nonzero"/></g><path fill="rgb(30.979919%, 56.469727%, 76.078796%)" d="M 383.835938 123.160156 L 383.835938 616.144531 L 556.726562 566.691406 L 595.316406 123.160156 Z M 383.835938 123.160156 " fill-opacity="1" fill-rule="nonzero"/><path fill="rgb(100%, 100%, 100%)" d="M 524.308594 200.433594 L 383.835938 200.433594 L 383.835938 262.246094 L 459.476562 262.246094 L 454.84375 324.0625 L 383.835938 324.0625 L 383.835938 385.878906 L 451.757812 385.878906 L 447.125 455.421875 L 383.835938 477.058594 L 383.835938 541.964844 L 505.785156 501.785156 L 516.589844 324.0625 Z M 524.308594 200.433594 " fill-opacity="1" fill-rule="nonzero"/><path fill="rgb(93.328857%, 93.328857%, 93.328857%)" d="M 383.835938 200.433594 L 383.835938 262.246094 L 246.449219 262.246094 L 241.820312 200.433594 Z M 312.828125 324.0625 L 315.914062 385.878906 L 383.835938 385.878906 L 383.835938 324.0625 Z M 319.003906 416.785156 L 257.253906 416.785156 L 261.886719 501.785156 L 383.835938 541.964844 L 383.835938 477.058594 L 320.546875 455.421875 Z M 319.003906 416.785156 " fill-opacity="1" fill-rule="nonzero"/></svg>