<svg xmlns="http://www.w3.org/2000/svg" xmlns:xlink="http://www.w3.org/1999/xlink" width="1024" zoomAndPan="magnify" viewBox="0 0 768 767.999994" height="1024" preserveAspectRatio="xMidYMid meet" version="1.0"><defs><clipPath id="id1"><path d="M 72 163 L 708.523438 163 L 708.523438 639.753906 L 72 639.753906 Z M 72 163 " clip-rule="nonzero"/></clipPath></defs><g clip-path="url(#id1)"><path fill="rgb(24.708557%, 50.979614%, 72.549438%)" d="M 735.753906 640.828125 L 735.753906 173.070312 L 761.121094 173.070312 L 761.121094 246.648438 C 764.121094 243.382812 766.878906 239.925781 769.402344 236.277344 C 790.589844 192.3125 835.277344 164.566406 884.066406 165.113281 C 941.90625 163.386719 988.910156 184.800781 1016.53125 236.277344 C 1018.71875 240.257812 1020.785156 244.296875 1022.730469 248.402344 C 1024.679688 252.503906 1026.5 256.660156 1028.199219 260.871094 C 1029.898438 265.082031 1031.472656 269.339844 1032.917969 273.644531 C 1034.363281 277.949219 1035.679688 282.292969 1036.867188 286.679688 C 1038.054688 291.0625 1039.109375 295.476562 1040.03125 299.921875 C 1040.957031 304.367188 1041.746094 308.839844 1042.40625 313.332031 C 1043.0625 317.824219 1043.585938 322.332031 1043.976562 326.859375 C 1044.367188 331.382812 1044.621094 335.914062 1044.738281 340.453125 C 1044.859375 344.992188 1044.84375 349.535156 1044.691406 354.070312 C 1044.542969 358.609375 1044.257812 363.140625 1043.835938 367.664062 C 1043.414062 372.183594 1042.859375 376.691406 1042.171875 381.179688 C 1041.484375 385.667969 1040.660156 390.132812 1039.707031 394.570312 C 1038.75 399.011719 1037.664062 403.417969 1036.449219 407.792969 C 1035.230469 412.167969 1033.886719 416.503906 1032.410156 420.796875 C 1030.933594 425.09375 1029.332031 429.339844 1027.605469 433.539062 C 1025.878906 437.738281 1024.023438 441.882812 1022.050781 445.972656 C 996.316406 503.65625 932.753906 532.339844 864.707031 521.804688 C 862.070312 521.578125 859.445312 521.273438 856.832031 520.886719 C 854.214844 520.5 851.617188 520.03125 849.027344 519.480469 C 846.441406 518.929688 843.875 518.300781 841.328125 517.589844 C 838.78125 516.882812 836.261719 516.09375 833.761719 515.226562 C 831.265625 514.359375 828.796875 513.414062 826.359375 512.394531 C 823.917969 511.375 821.515625 510.277344 819.144531 509.109375 C 816.773438 507.9375 814.441406 506.695312 812.148438 505.378906 C 809.855469 504.0625 807.605469 502.675781 805.398438 501.21875 C 803.191406 499.761719 801.035156 498.238281 798.921875 496.648438 C 796.808594 495.058594 794.75 493.402344 792.742188 491.683594 C 790.734375 489.964844 788.78125 488.183594 786.882812 486.34375 C 784.984375 484.5 783.144531 482.601562 781.367188 480.648438 C 779.585938 478.691406 777.871094 476.683594 776.214844 474.617188 C 774.5625 472.554688 772.972656 470.445312 771.453125 468.28125 C 769.929688 466.121094 768.476562 463.914062 767.089844 461.660156 C 765.707031 459.410156 764.390625 457.113281 763.152344 454.78125 L 763.152344 640.808594 Z M 761.121094 338.535156 L 766.804688 393.460938 C 776.828125 455.976562 813.785156 492.921875 871.808594 499.863281 C 873.496094 500.140625 875.1875 500.378906 876.882812 500.585938 C 878.582031 500.789062 880.28125 500.957031 881.984375 501.089844 C 883.6875 501.21875 885.394531 501.316406 887.101562 501.375 C 888.8125 501.433594 890.519531 501.453125 892.230469 501.4375 C 893.9375 501.421875 895.644531 501.371094 897.351562 501.28125 C 899.058594 501.195312 900.761719 501.070312 902.464844 500.90625 C 904.167969 500.746094 905.863281 500.546875 907.554688 500.3125 C 909.25 500.078125 910.9375 499.808594 912.617188 499.5 C 914.296875 499.191406 915.972656 498.847656 917.640625 498.46875 C 919.304688 498.089844 920.964844 497.675781 922.613281 497.226562 C 924.261719 496.773438 925.898438 496.289062 927.527344 495.769531 C 929.15625 495.246094 930.769531 494.691406 932.375 494.101562 C 933.976562 493.511719 935.570312 492.886719 937.144531 492.230469 C 938.722656 491.570312 940.285156 490.878906 941.832031 490.152344 C 943.378906 489.425781 944.910156 488.667969 946.425781 487.875 C 947.941406 487.085938 949.4375 486.261719 950.917969 485.40625 C 952.398438 484.550781 953.859375 483.664062 955.300781 482.742188 C 956.738281 481.824219 958.160156 480.875 959.5625 479.894531 C 960.960938 478.917969 962.339844 477.90625 963.699219 476.867188 C 965.054688 475.828125 966.390625 474.761719 967.699219 473.664062 C 969.011719 472.570312 970.300781 471.445312 971.5625 470.292969 C 972.824219 469.140625 974.0625 467.964844 975.277344 466.757812 C 976.488281 465.554688 977.675781 464.324219 978.832031 463.070312 C 979.992188 461.8125 981.125 460.53125 982.230469 459.230469 C 983.335938 457.925781 984.410156 456.597656 985.457031 455.246094 C 986.507812 453.894531 987.523438 452.523438 988.511719 451.128906 C 989.5 449.734375 990.460938 448.320312 991.386719 446.882812 C 992.316406 445.449219 993.210938 443.992188 994.078125 442.519531 C 994.941406 441.046875 995.773438 439.554688 996.578125 438.042969 C 997.378906 436.535156 998.144531 435.007812 998.882812 433.464844 C 999.617188 431.921875 1000.320312 430.363281 1000.988281 428.789062 C 1001.65625 427.21875 1002.292969 425.628906 1002.890625 424.03125 C 1025.460938 370.242188 1023.796875 309.347656 998.425781 256.816406 C 997.144531 253.945312 995.746094 251.128906 994.234375 248.367188 C 992.722656 245.605469 991.101562 242.910156 989.375 240.28125 C 987.644531 237.652344 985.8125 235.09375 983.878906 232.613281 C 981.941406 230.132812 979.910156 227.730469 977.78125 225.414062 C 975.652344 223.097656 973.433594 220.867188 971.121094 218.730469 C 968.8125 216.589844 966.421875 214.550781 963.949219 212.605469 C 961.472656 210.660156 958.925781 208.816406 956.304688 207.078125 C 953.679688 205.335938 950.992188 203.707031 948.238281 202.183594 C 945.484375 200.664062 942.671875 199.253906 939.804688 197.957031 C 936.933594 196.664062 934.019531 195.484375 931.054688 194.425781 C 928.09375 193.367188 925.089844 192.429688 922.050781 191.609375 C 919.011719 190.792969 915.945312 190.101562 912.851562 189.53125 C 909.753906 188.960938 906.644531 188.515625 903.511719 188.199219 C 900.378906 187.882812 897.242188 187.691406 894.097656 187.625 C 890.949219 187.5625 887.804688 187.625 884.664062 187.8125 C 881.523438 188.003906 878.394531 188.316406 875.277344 188.761719 C 872.351562 188.972656 869.4375 189.300781 866.535156 189.738281 C 863.636719 190.175781 860.753906 190.726562 857.894531 191.386719 C 855.035156 192.046875 852.207031 192.816406 849.40625 193.699219 C 846.609375 194.578125 843.847656 195.5625 841.125 196.65625 C 838.402344 197.75 835.722656 198.949219 833.09375 200.246094 C 830.460938 201.546875 827.886719 202.949219 825.363281 204.449219 C 822.839844 205.949219 820.378906 207.542969 817.980469 209.230469 C 815.582031 210.921875 813.253906 212.703125 810.992188 214.570312 C 808.730469 216.441406 806.542969 218.398438 804.433594 220.4375 C 802.320312 222.476562 800.292969 224.59375 798.347656 226.789062 C 796.398438 228.984375 794.542969 231.253906 792.769531 233.59375 C 791 235.933594 789.320312 238.335938 787.734375 240.808594 C 786.148438 243.277344 784.660156 245.804688 783.269531 248.386719 C 781.882812 250.972656 780.59375 253.605469 779.40625 256.292969 C 778.21875 258.976562 777.140625 261.703125 776.164062 264.46875 C 775.1875 267.238281 774.320312 270.039062 773.5625 272.875 C 768.15625 294.515625 764.007812 316.398438 761.121094 338.515625 Z M 1562.722656 402.109375 C 1562.484375 404.144531 1562.199219 406.175781 1561.871094 408.199219 C 1561.542969 410.222656 1561.167969 412.238281 1560.75 414.246094 C 1560.328125 416.253906 1559.863281 418.25 1559.355469 420.234375 C 1558.84375 422.21875 1558.292969 424.195312 1557.691406 426.15625 C 1557.09375 428.117188 1556.453125 430.0625 1555.765625 431.996094 C 1555.082031 433.925781 1554.351562 435.84375 1553.582031 437.742188 C 1552.808594 439.640625 1551.996094 441.523438 1551.136719 443.386719 C 1550.28125 445.25 1549.382812 447.09375 1548.445312 448.914062 C 1547.503906 450.738281 1546.523438 452.539062 1545.503906 454.316406 C 1544.484375 456.09375 1543.425781 457.847656 1542.324219 459.578125 C 1541.226562 461.308594 1540.089844 463.015625 1538.914062 464.695312 C 1537.738281 466.375 1536.523438 468.027344 1535.273438 469.652344 C 1534.023438 471.277344 1532.738281 472.875 1531.417969 474.441406 C 1530.09375 476.007812 1528.738281 477.542969 1527.347656 479.050781 C 1525.957031 480.558594 1524.53125 482.03125 1523.074219 483.472656 C 1521.617188 484.914062 1520.128906 486.324219 1518.609375 487.699219 C 1517.089844 489.074219 1515.539062 490.414062 1513.957031 491.722656 C 1512.375 493.027344 1510.765625 494.296875 1509.128906 495.527344 C 1507.492188 496.761719 1505.828125 497.957031 1504.136719 499.117188 C 1502.445312 500.273438 1500.726562 501.394531 1498.984375 502.476562 C 1497.242188 503.558594 1495.476562 504.597656 1493.6875 505.601562 C 1491.902344 506.601562 1490.089844 507.5625 1488.257812 508.484375 C 1486.425781 509.402344 1484.574219 510.28125 1482.703125 511.117188 C 1480.832031 511.957031 1478.941406 512.75 1477.035156 513.503906 C 1475.128906 514.253906 1473.203125 514.964844 1471.265625 515.628906 C 1469.328125 516.296875 1467.375 516.917969 1465.40625 517.496094 C 1463.441406 518.074219 1461.460938 518.605469 1459.46875 519.09375 C 1457.480469 519.582031 1455.476562 520.027344 1453.46875 520.425781 C 1451.457031 520.824219 1449.4375 521.179688 1447.410156 521.484375 C 1445.382812 521.792969 1443.351562 522.054688 1441.3125 522.273438 C 1439.273438 522.488281 1437.230469 522.660156 1435.183594 522.785156 C 1433.140625 522.910156 1431.089844 522.988281 1429.039062 523.023438 C 1322.65625 528.378906 1272.730469 457.722656 1264.796875 376.1875 C 1263.421875 365.175781 1262.832031 354.117188 1263.023438 343.019531 C 1263.214844 331.921875 1264.1875 320.894531 1265.941406 309.933594 C 1267.695312 298.976562 1270.210938 288.191406 1273.488281 277.589844 C 1276.769531 266.984375 1280.777344 256.664062 1285.515625 246.628906 C 1287.160156 243.195312 1288.9375 239.832031 1290.847656 236.542969 C 1292.757812 233.25 1294.796875 230.039062 1296.960938 226.90625 C 1299.125 223.773438 1301.410156 220.734375 1303.8125 217.78125 C 1306.21875 214.832031 1308.734375 211.980469 1311.363281 209.230469 C 1313.992188 206.476562 1316.726562 203.832031 1319.566406 201.296875 C 1322.402344 198.761719 1325.335938 196.34375 1328.367188 194.039062 C 1331.398438 191.734375 1334.511719 189.554688 1337.714844 187.496094 C 1340.917969 185.4375 1344.195312 183.511719 1347.546875 181.710938 C 1350.902344 179.914062 1354.324219 178.25 1357.808594 176.722656 C 1361.292969 175.191406 1364.835938 173.804688 1368.429688 172.554688 C 1372.023438 171.308594 1375.664062 170.203125 1379.347656 169.242188 C 1383.03125 168.28125 1386.746094 167.464844 1390.492188 166.796875 C 1394.238281 166.128906 1398.003906 165.613281 1401.792969 165.242188 C 1405.582031 164.871094 1409.378906 164.652344 1413.183594 164.582031 C 1416.988281 164.515625 1420.789062 164.59375 1424.589844 164.824219 C 1428.386719 165.054688 1432.171875 165.4375 1435.941406 165.964844 C 1439.523438 166.269531 1443.089844 166.714844 1446.640625 167.296875 C 1450.1875 167.878906 1453.710938 168.601562 1457.203125 169.460938 C 1460.695312 170.316406 1464.148438 171.308594 1467.566406 172.4375 C 1470.980469 173.566406 1474.347656 174.824219 1477.664062 176.214844 C 1480.980469 177.605469 1484.238281 179.125 1487.4375 180.769531 C 1490.632812 182.414062 1493.765625 184.179688 1496.824219 186.070312 C 1499.886719 187.957031 1502.867188 189.964844 1505.769531 192.085938 C 1508.675781 194.207031 1511.492188 196.441406 1514.222656 198.78125 C 1516.953125 201.125 1519.585938 203.570312 1522.125 206.117188 C 1524.664062 208.664062 1527.097656 211.308594 1529.433594 214.046875 C 1531.765625 216.78125 1533.988281 219.609375 1536.097656 222.519531 C 1538.210938 225.429688 1540.207031 228.417969 1542.085938 231.488281 C 1543.964844 234.554688 1545.722656 237.691406 1547.355469 240.894531 C 1548.988281 244.097656 1550.496094 247.363281 1551.875 250.683594 C 1553.253906 254.003906 1554.5 257.375 1555.617188 260.796875 C 1556.734375 264.214844 1557.714844 267.671875 1558.5625 271.167969 C 1563.96875 296.863281 1567.941406 322.773438 1570.476562 348.910156 L 1291.078125 348.910156 C 1285.902344 422.832031 1325.621094 482.265625 1381.917969 496.59375 C 1452.035156 513.847656 1511.964844 483.460938 1533.722656 416.785156 C 1538.550781 399.671875 1547.359375 397.257812 1562.90625 402.109375 Z M 1290.875 325.242188 L 1540.785156 325.242188 C 1539.222656 246.488281 1490.1875 189.246094 1423.683594 188.597656 C 1348.59375 187.378906 1294.140625 242.324219 1290.875 325.242188 Z M 1614.371094 403.832031 L 1638.867188 403.832031 C 1638.980469 406.078125 1639.167969 408.3125 1639.433594 410.542969 C 1639.699219 412.773438 1640.039062 414.992188 1640.457031 417.199219 C 1640.875 419.40625 1641.367188 421.59375 1641.933594 423.765625 C 1642.503906 425.941406 1643.144531 428.089844 1643.859375 430.21875 C 1644.574219 432.347656 1645.359375 434.449219 1646.21875 436.523438 C 1647.078125 438.597656 1648.007812 440.640625 1649.007812 442.652344 C 1650.003906 444.664062 1651.070312 446.640625 1652.207031 448.578125 C 1653.339844 450.515625 1654.539062 452.410156 1655.804688 454.265625 C 1657.070312 456.125 1658.394531 457.933594 1659.785156 459.699219 C 1661.171875 461.460938 1662.621094 463.179688 1664.125 464.84375 C 1665.632812 466.507812 1667.195312 468.121094 1668.8125 469.679688 C 1670.429688 471.238281 1672.097656 472.738281 1673.816406 474.183594 C 1675.535156 475.625 1677.304688 477.007812 1679.117188 478.332031 C 1680.933594 479.65625 1682.789062 480.914062 1684.691406 482.109375 C 1686.589844 483.304688 1688.53125 484.433594 1690.507812 485.496094 C 1692.488281 486.558594 1694.5 487.550781 1696.546875 488.476562 C 1701.699219 490.792969 1706.964844 492.816406 1712.347656 494.542969 C 1717.726562 496.273438 1723.1875 497.691406 1728.726562 498.804688 C 1734.265625 499.917969 1739.851562 500.71875 1745.480469 501.203125 C 1751.113281 501.6875 1756.75 501.855469 1762.402344 501.707031 C 1768.050781 501.558594 1773.671875 501.09375 1779.269531 500.3125 C 1784.863281 499.53125 1790.402344 498.4375 1795.875 497.035156 C 1801.347656 495.632812 1806.726562 493.925781 1812.007812 491.917969 C 1817.289062 489.910156 1822.441406 487.613281 1827.46875 485.023438 C 1828.832031 484.410156 1830.167969 483.746094 1831.480469 483.027344 C 1832.792969 482.3125 1834.078125 481.546875 1835.332031 480.734375 C 1836.589844 479.921875 1837.808594 479.058594 1839 478.152344 C 1840.1875 477.246094 1841.339844 476.292969 1842.457031 475.300781 C 1843.574219 474.304688 1844.652344 473.269531 1845.6875 472.191406 C 1846.726562 471.113281 1847.722656 470 1848.671875 468.847656 C 1849.625 467.691406 1850.535156 466.503906 1851.394531 465.285156 C 1852.257812 464.0625 1853.070312 462.808594 1853.839844 461.523438 C 1854.605469 460.238281 1855.320312 458.929688 1855.988281 457.589844 C 1856.65625 456.25 1857.269531 454.886719 1857.832031 453.503906 C 1858.394531 452.117188 1858.902344 450.710938 1859.359375 449.285156 C 1859.816406 447.863281 1860.214844 446.421875 1860.5625 444.96875 C 1860.90625 443.511719 1861.199219 442.046875 1861.433594 440.570312 C 1861.667969 439.089844 1861.84375 437.609375 1861.964844 436.117188 C 1862.085938 434.625 1862.152344 433.132812 1862.15625 431.636719 C 1862.164062 430.140625 1862.117188 428.648438 1862.007812 427.15625 C 1862.085938 425.71875 1862.105469 424.28125 1862.070312 422.839844 C 1862.03125 421.402344 1861.933594 419.964844 1861.78125 418.535156 C 1861.628906 417.105469 1861.414062 415.679688 1861.148438 414.265625 C 1860.878906 412.851562 1860.550781 411.453125 1860.167969 410.0625 C 1859.785156 408.675781 1859.347656 407.304688 1858.855469 405.953125 C 1858.363281 404.601562 1857.816406 403.269531 1857.214844 401.960938 C 1856.613281 400.65625 1855.960938 399.371094 1855.257812 398.117188 C 1854.550781 396.863281 1853.796875 395.636719 1852.992188 394.441406 C 1852.191406 393.25 1851.339844 392.089844 1850.441406 390.964844 C 1849.542969 389.839844 1848.601562 388.75 1847.617188 387.703125 C 1846.632812 386.652344 1845.605469 385.644531 1844.539062 384.679688 C 1843.472656 383.710938 1842.367188 382.789062 1841.226562 381.914062 C 1840.085938 381.035156 1838.910156 380.207031 1837.699219 379.425781 C 1836.492188 378.644531 1835.253906 377.910156 1833.988281 377.230469 C 1832.71875 376.546875 1831.425781 375.917969 1830.105469 375.339844 C 1828.789062 374.765625 1827.449219 374.242188 1826.085938 373.773438 C 1799.136719 363.746094 1770.480469 358.226562 1743.019531 349.417969 C 1714.410156 341.269531 1686.542969 331.078125 1659.425781 318.847656 C 1615.183594 297.25 1612.445312 213.136719 1662.53125 186.507812 C 1665.722656 184.707031 1668.964844 183.007812 1672.261719 181.410156 C 1675.558594 179.8125 1678.898438 178.316406 1682.289062 176.925781 C 1685.679688 175.535156 1689.109375 174.253906 1692.578125 173.078125 C 1696.046875 171.902344 1699.546875 170.832031 1703.085938 169.875 C 1706.621094 168.917969 1710.183594 168.070312 1713.769531 167.335938 C 1717.359375 166.597656 1720.964844 165.976562 1724.59375 165.464844 C 1728.222656 164.953125 1731.859375 164.554688 1735.511719 164.269531 C 1739.164062 163.984375 1742.824219 163.816406 1746.484375 163.757812 C 1750.148438 163.703125 1753.808594 163.761719 1757.46875 163.933594 C 1761.128906 164.101562 1764.777344 164.390625 1768.417969 164.789062 C 1772.058594 165.1875 1775.683594 165.699219 1779.292969 166.324219 C 1782.902344 166.949219 1786.492188 167.6875 1790.054688 168.535156 C 1793.617188 169.382812 1797.152344 170.34375 1800.65625 171.410156 C 1804.160156 172.480469 1807.625 173.65625 1811.054688 174.941406 C 1814.488281 176.226562 1817.875 177.617188 1821.21875 179.113281 C 1824.5625 180.609375 1827.855469 182.207031 1831.101562 183.910156 C 1863.449219 201.769531 1881.328125 237.839844 1876.011719 274.4375 L 1855.007812 274.4375 C 1855.007812 273.421875 1853.097656 272.527344 1853.097656 271.492188 C 1850.5 204.511719 1794.203125 183.5625 1733.765625 189.449219 C 1715.5 191.480469 1698.191406 197 1681.953125 205.160156 C 1680.742188 205.714844 1679.554688 206.3125 1678.390625 206.957031 C 1677.226562 207.601562 1676.085938 208.289062 1674.976562 209.023438 C 1673.863281 209.757812 1672.78125 210.53125 1671.730469 211.347656 C 1670.679688 212.164062 1669.660156 213.019531 1668.675781 213.914062 C 1667.6875 214.808594 1666.738281 215.738281 1665.824219 216.707031 C 1664.910156 217.675781 1664.035156 218.675781 1663.199219 219.710938 C 1662.363281 220.746094 1661.566406 221.8125 1660.8125 222.910156 C 1660.058594 224.007812 1659.347656 225.132812 1658.679688 226.285156 C 1658.011719 227.4375 1657.390625 228.613281 1656.8125 229.8125 C 1656.234375 231.011719 1655.707031 232.230469 1655.222656 233.472656 C 1654.742188 234.714844 1654.304688 235.96875 1653.921875 237.246094 C 1653.535156 238.519531 1653.199219 239.804688 1652.914062 241.105469 C 1652.625 242.40625 1652.390625 243.714844 1652.203125 245.035156 C 1652.019531 246.351562 1651.886719 247.675781 1651.800781 249.003906 C 1651.71875 250.332031 1651.6875 251.664062 1651.707031 252.996094 C 1651.726562 254.328125 1651.796875 255.65625 1651.917969 256.980469 C 1651.921875 258.308594 1651.972656 259.632812 1652.078125 260.953125 C 1652.183594 262.277344 1652.335938 263.59375 1652.542969 264.90625 C 1652.75 266.214844 1653.003906 267.515625 1653.308594 268.808594 C 1653.617188 270.097656 1653.96875 271.375 1654.375 272.640625 C 1654.777344 273.90625 1655.230469 275.152344 1655.730469 276.378906 C 1656.230469 277.609375 1656.777344 278.816406 1657.367188 280.003906 C 1657.960938 281.191406 1658.597656 282.355469 1659.28125 283.492188 C 1659.960938 284.628906 1660.6875 285.742188 1661.457031 286.824219 C 1662.222656 287.90625 1663.03125 288.957031 1663.878906 289.976562 C 1664.726562 290.996094 1665.613281 291.984375 1666.535156 292.933594 C 1667.460938 293.886719 1668.421875 294.800781 1669.414062 295.679688 C 1670.410156 296.558594 1671.4375 297.398438 1672.496094 298.195312 C 1673.554688 298.996094 1674.640625 299.753906 1675.757812 300.46875 C 1676.875 301.183594 1678.019531 301.855469 1679.1875 302.484375 C 1680.355469 303.109375 1681.546875 303.691406 1682.761719 304.230469 C 1683.976562 304.765625 1685.207031 305.253906 1686.460938 305.695312 C 1712.84375 315.375 1740.847656 321.589844 1768.144531 329.179688 L 1834.101562 346.433594 C 1835.964844 347.042969 1837.800781 347.722656 1839.609375 348.472656 C 1841.417969 349.222656 1843.195312 350.039062 1844.945312 350.921875 C 1846.691406 351.804688 1848.402344 352.75 1850.082031 353.765625 C 1851.757812 354.777344 1853.394531 355.851562 1854.988281 356.984375 C 1856.582031 358.121094 1858.132812 359.316406 1859.640625 360.570312 C 1861.144531 361.820312 1862.601562 363.128906 1864.007812 364.492188 C 1865.414062 365.851562 1866.769531 367.265625 1868.070312 368.730469 C 1869.371094 370.195312 1870.613281 371.707031 1871.800781 373.265625 C 1872.984375 374.824219 1874.113281 376.425781 1875.175781 378.066406 C 1876.242188 379.710938 1877.246094 381.390625 1878.183594 383.109375 C 1879.125 384.828125 1879.996094 386.578125 1880.804688 388.363281 C 1881.613281 390.148438 1882.351562 391.960938 1883.019531 393.800781 C 1883.691406 395.640625 1884.292969 397.503906 1884.820312 399.390625 C 1885.351562 401.273438 1885.808594 403.179688 1886.195312 405.097656 C 1886.582031 407.019531 1886.898438 408.949219 1887.136719 410.894531 C 1887.378906 412.835938 1887.546875 414.785156 1887.640625 416.742188 C 1892.917969 452.164062 1874.855469 486.972656 1842.910156 503.109375 C 1785.234375 535.75 1690.234375 527.121094 1647.917969 485.855469 C 1626.265625 464.078125 1614.191406 434.503906 1614.433594 403.8125 Z M 2198.453125 274.457031 L 2175.480469 274.457031 C 2175.480469 271.351562 2174.261719 268.367188 2173.917969 265.992188 C 2173.871094 263.859375 2173.738281 261.730469 2173.511719 259.609375 C 2173.285156 257.488281 2172.964844 255.378906 2172.558594 253.285156 C 2172.152344 251.191406 2171.660156 249.117188 2171.074219 247.066406 C 2170.492188 245.011719 2169.824219 242.988281 2169.066406 240.992188 C 2168.3125 238.996094 2167.472656 237.039062 2166.550781 235.113281 C 2165.628906 233.191406 2164.625 231.308594 2163.542969 229.46875 C 2162.457031 227.632812 2161.300781 225.84375 2160.0625 224.101562 C 2158.828125 222.363281 2157.519531 220.679688 2156.140625 219.050781 C 2154.761719 217.421875 2153.316406 215.855469 2151.804688 214.351562 C 2150.292969 212.847656 2148.71875 211.410156 2147.082031 210.039062 C 2145.449219 208.667969 2143.757812 207.367188 2142.011719 206.140625 C 2140.265625 204.914062 2138.472656 203.765625 2136.628906 202.691406 C 2134.785156 201.617188 2132.898438 200.625 2130.96875 199.710938 C 2129.042969 198.796875 2127.078125 197.96875 2125.078125 197.222656 C 2123.082031 196.480469 2121.054688 195.820312 2118.996094 195.246094 C 2116.941406 194.675781 2114.867188 194.191406 2112.769531 193.792969 C 2104.84375 191.519531 2096.78125 189.90625 2088.589844 188.957031 C 2080.394531 188.003906 2072.179688 187.726562 2063.941406 188.125 C 2055.703125 188.519531 2047.550781 189.585938 2039.488281 191.320312 C 2031.425781 193.054688 2023.554688 195.4375 2015.882812 198.460938 C 2014.367188 198.894531 2012.871094 199.390625 2011.398438 199.945312 C 2009.921875 200.496094 2008.472656 201.109375 2007.046875 201.78125 C 2005.621094 202.449219 2004.222656 203.175781 2002.855469 203.957031 C 2001.488281 204.742188 2000.152344 205.578125 1998.851562 206.46875 C 1997.550781 207.355469 1996.289062 208.296875 1995.0625 209.289062 C 1993.839844 210.28125 1992.65625 211.316406 1991.511719 212.402344 C 1990.371094 213.492188 1989.273438 214.621094 1988.222656 215.796875 C 1987.171875 216.96875 1986.171875 218.183594 1985.21875 219.4375 C 1984.265625 220.691406 1983.363281 221.984375 1982.511719 223.3125 C 1981.664062 224.640625 1980.867188 225.996094 1980.128906 227.390625 C 1979.386719 228.78125 1978.703125 230.199219 1978.078125 231.644531 C 1977.449219 233.089844 1976.882812 234.558594 1976.375 236.050781 C 1975.863281 237.542969 1975.417969 239.050781 1975.027344 240.578125 C 1974.640625 242.105469 1974.316406 243.648438 1974.050781 245.203125 C 1973.789062 246.753906 1973.585938 248.316406 1973.449219 249.886719 C 1973.3125 251.457031 1973.234375 253.03125 1973.222656 254.605469 C 1973.167969 256.152344 1973.179688 257.695312 1973.257812 259.242188 C 1973.335938 260.785156 1973.480469 262.324219 1973.691406 263.855469 C 1973.902344 265.390625 1974.175781 266.910156 1974.515625 268.417969 C 1974.855469 269.925781 1975.261719 271.417969 1975.726562 272.894531 C 1976.195312 274.367188 1976.726562 275.820312 1977.316406 277.246094 C 1977.910156 278.675781 1978.5625 280.078125 1979.273438 281.449219 C 1979.984375 282.824219 1980.753906 284.164062 1981.582031 285.472656 C 1982.40625 286.777344 1983.289062 288.046875 1984.222656 289.28125 C 1985.160156 290.511719 1986.144531 291.699219 1987.179688 292.847656 C 1988.21875 293.996094 1989.300781 295.097656 1990.433594 296.152344 C 1991.566406 297.207031 1992.738281 298.210938 1993.957031 299.164062 C 1995.175781 300.117188 1996.429688 301.015625 1997.722656 301.863281 C 1999.019531 302.710938 2000.347656 303.5 2001.707031 304.230469 C 2003.070312 304.964844 2004.460938 305.636719 2005.882812 306.25 C 2007.300781 306.863281 2008.742188 307.417969 2010.210938 307.90625 C 2011.675781 308.398438 2013.164062 308.824219 2014.664062 309.1875 L 2119.671875 336.140625 C 2131.035156 338.867188 2142.199219 342.265625 2153.15625 346.332031 C 2186.644531 358.507812 2209.375 389.605469 2210.386719 425.144531 C 2210.449219 427.304688 2210.433594 429.464844 2210.332031 431.621094 C 2210.230469 433.78125 2210.050781 435.929688 2209.789062 438.074219 C 2209.527344 440.21875 2209.1875 442.351562 2208.765625 444.46875 C 2208.34375 446.589844 2207.84375 448.6875 2207.265625 450.769531 C 2206.6875 452.851562 2206.03125 454.90625 2205.296875 456.9375 C 2204.5625 458.96875 2203.753906 460.972656 2202.871094 462.941406 C 2201.984375 464.914062 2201.027344 466.847656 2200 468.746094 C 2198.96875 470.644531 2197.871094 472.503906 2196.703125 474.320312 C 2195.53125 476.136719 2194.296875 477.90625 2192.996094 479.628906 C 2191.695312 481.355469 2190.328125 483.027344 2188.902344 484.648438 C 2187.476562 486.269531 2185.988281 487.832031 2184.445312 489.34375 C 2182.898438 490.851562 2181.300781 492.300781 2179.644531 493.691406 C 2177.992188 495.082031 2176.289062 496.40625 2174.535156 497.667969 C 2172.78125 498.929688 2170.984375 500.121094 2169.140625 501.25 C 2167.296875 502.375 2165.414062 503.429688 2163.492188 504.414062 C 2161.570312 505.398438 2159.613281 506.3125 2157.621094 507.148438 C 2151.546875 509.910156 2145.34375 512.347656 2139.011719 514.460938 C 2132.683594 516.574219 2126.257812 518.355469 2119.742188 519.800781 C 2113.226562 521.246094 2106.65625 522.347656 2100.023438 523.109375 C 2093.394531 523.867188 2086.742188 524.28125 2080.066406 524.347656 C 2073.394531 524.414062 2066.734375 524.136719 2060.089844 523.507812 C 2053.445312 522.882812 2046.851562 521.914062 2040.308594 520.597656 C 2033.765625 519.285156 2027.308594 517.632812 2020.9375 515.648438 C 2014.566406 513.660156 2008.316406 511.347656 2002.183594 508.710938 C 1999.675781 507.628906 1997.210938 506.453125 1994.789062 505.183594 C 1992.371094 503.914062 1990.003906 502.554688 1987.6875 501.105469 C 1985.371094 499.65625 1983.113281 498.117188 1980.910156 496.496094 C 1978.710938 494.875 1976.578125 493.171875 1974.507812 491.386719 C 1972.4375 489.601562 1970.4375 487.742188 1968.507812 485.808594 C 1966.582031 483.871094 1964.726562 481.863281 1962.953125 479.785156 C 1961.175781 477.710938 1959.480469 475.566406 1957.867188 473.363281 C 1956.253906 471.15625 1954.726562 468.890625 1953.285156 466.570312 C 1951.847656 464.246094 1950.496094 461.871094 1949.234375 459.445312 C 1947.976562 457.023438 1946.808594 454.550781 1945.734375 452.039062 C 1944.664062 449.523438 1943.6875 446.972656 1942.808594 444.386719 C 1941.929688 441.796875 1941.152344 439.179688 1940.472656 436.53125 C 1939.792969 433.886719 1939.214844 431.214844 1938.738281 428.523438 C 1938.261719 425.832031 1937.890625 423.128906 1937.621094 420.40625 C 1937.347656 417.6875 1937.183594 414.960938 1937.121094 412.230469 C 1937.054688 409.496094 1937.097656 406.765625 1937.242188 404.035156 L 1959.6875 404.035156 C 1968.128906 444.734375 1996.074219 478.628906 2034.414062 494.664062 C 2072.75 510.699219 2116.523438 506.761719 2151.390625 484.191406 C 2153.992188 482.839844 2156.488281 481.308594 2158.871094 479.597656 C 2161.253906 477.890625 2163.503906 476.019531 2165.621094 473.992188 C 2167.738281 471.960938 2169.699219 469.792969 2171.507812 467.480469 C 2173.316406 465.171875 2174.949219 462.746094 2176.414062 460.203125 C 2177.875 457.660156 2179.148438 455.027344 2180.234375 452.300781 C 2181.320312 449.578125 2182.207031 446.789062 2182.898438 443.9375 C 2183.585938 441.085938 2184.070312 438.203125 2184.347656 435.28125 C 2184.625 432.359375 2184.691406 429.4375 2184.554688 426.507812 C 2184.617188 425.066406 2184.625 423.628906 2184.570312 422.191406 C 2184.519531 420.75 2184.410156 419.316406 2184.242188 417.886719 C 2184.074219 416.457031 2183.847656 415.035156 2183.566406 413.625 C 2183.285156 412.210938 2182.945312 410.8125 2182.546875 409.429688 C 2182.152344 408.046875 2181.699219 406.679688 2181.195312 405.332031 C 2180.6875 403.984375 2180.128906 402.660156 2179.511719 401.355469 C 2178.898438 400.054688 2178.234375 398.777344 2177.515625 397.527344 C 2176.800781 396.28125 2176.035156 395.0625 2175.21875 393.875 C 2174.402344 392.691406 2173.539062 391.539062 2172.632812 390.421875 C 2171.722656 389.304688 2170.769531 388.226562 2169.773438 387.1875 C 2168.78125 386.144531 2167.742188 385.148438 2166.667969 384.191406 C 2165.589844 383.238281 2164.476562 382.324219 2163.324219 381.460938 C 2162.175781 380.59375 2160.992188 379.777344 2159.777344 379.007812 C 2158.558594 378.234375 2157.3125 377.515625 2156.039062 376.847656 C 2154.765625 376.179688 2153.464844 375.5625 2152.140625 374.996094 C 2150.816406 374.433594 2149.46875 373.925781 2148.105469 373.46875 C 2121.152344 363.441406 2092.496094 358.101562 2065.039062 349.113281 C 2036.265625 341.089844 2008.230469 331.015625 1980.9375 318.886719 C 1937.75 297.636719 1934.300781 214.214844 1983.535156 187.601562 C 1986.761719 185.726562 1990.046875 183.957031 1993.390625 182.292969 C 1996.734375 180.632812 2000.125 179.078125 2003.570312 177.632812 C 2007.011719 176.1875 2010.496094 174.851562 2014.027344 173.632812 C 2017.554688 172.410156 2021.117188 171.304688 2024.71875 170.3125 C 2028.316406 169.324219 2031.945312 168.449219 2035.601562 167.691406 C 2039.257812 166.933594 2042.933594 166.292969 2046.632812 165.773438 C 2050.328125 165.253906 2054.039062 164.851562 2057.761719 164.570312 C 2061.484375 164.289062 2065.214844 164.128906 2068.945312 164.085938 C 2072.679688 164.042969 2076.410156 164.121094 2080.140625 164.320312 C 2083.867188 164.519531 2087.585938 164.839844 2091.292969 165.277344 C 2095 165.714844 2098.691406 166.273438 2102.363281 166.949219 C 2106.035156 167.625 2109.683594 168.417969 2113.304688 169.328125 C 2116.925781 170.238281 2120.511719 171.265625 2124.066406 172.40625 C 2127.621094 173.546875 2131.136719 174.804688 2134.609375 176.171875 C 2138.082031 177.539062 2141.511719 179.019531 2144.890625 180.609375 C 2148.269531 182.195312 2151.59375 183.890625 2154.863281 185.695312 C 2156.730469 186.808594 2158.554688 187.992188 2160.335938 189.238281 C 2162.117188 190.484375 2163.855469 191.792969 2165.542969 193.164062 C 2167.230469 194.539062 2168.867188 195.96875 2170.449219 197.457031 C 2172.035156 198.949219 2173.5625 200.496094 2175.035156 202.09375 C 2176.507812 203.695312 2177.921875 205.347656 2179.273438 207.050781 C 2180.628906 208.753906 2181.917969 210.503906 2183.144531 212.296875 C 2184.371094 214.09375 2185.53125 215.933594 2186.628906 217.8125 C 2187.722656 219.691406 2188.746094 221.609375 2189.703125 223.5625 C 2190.660156 225.515625 2191.542969 227.503906 2192.355469 229.519531 C 2193.167969 231.539062 2193.90625 233.582031 2194.570312 235.652344 C 2195.234375 237.726562 2195.824219 239.816406 2196.335938 241.929688 C 2196.851562 244.046875 2197.289062 246.175781 2197.648438 248.320312 C 2198.007812 250.464844 2198.289062 252.621094 2198.492188 254.785156 C 2198.695312 256.953125 2198.824219 259.121094 2198.871094 261.296875 C 2198.917969 263.472656 2198.886719 265.644531 2198.777344 267.816406 C 2198.664062 269.988281 2198.476562 272.15625 2198.210938 274.316406 Z M 694.007812 514.578125 C 692.886719 515 691.75 515.371094 690.597656 515.691406 C 689.445312 516.011719 688.28125 516.28125 687.105469 516.496094 C 685.929688 516.707031 684.746094 516.871094 683.554688 516.976562 C 682.363281 517.085938 681.167969 517.136719 679.972656 517.136719 C 678.777344 517.136719 677.582031 517.078125 676.390625 516.96875 C 675.199219 516.859375 674.015625 516.699219 672.839844 516.480469 C 671.664062 516.265625 670.5 515.996094 669.347656 515.671875 C 668.195312 515.351562 667.0625 514.976562 665.945312 514.550781 C 664.824219 514.125 663.730469 513.652344 662.65625 513.128906 C 661.578125 512.601562 660.53125 512.03125 659.507812 511.410156 C 658.484375 510.792969 657.492188 510.125 656.527344 509.417969 C 655.566406 508.707031 654.636719 507.957031 653.742188 507.160156 C 652.847656 506.367188 651.992188 505.535156 651.171875 504.664062 C 650.351562 503.792969 649.574219 502.882812 648.835938 501.941406 C 648.101562 501 647.40625 500.027344 646.757812 499.019531 C 646.109375 498.015625 645.507812 496.984375 644.953125 495.925781 L 555.65625 372.414062 L 542.710938 355.160156 L 439.085938 496.105469 C 438.5625 497.121094 437.996094 498.109375 437.382812 499.074219 C 436.769531 500.035156 436.117188 500.96875 435.421875 501.875 C 434.726562 502.777344 433.992188 503.648438 433.214844 504.484375 C 432.441406 505.324219 431.632812 506.125 430.785156 506.890625 C 429.9375 507.65625 429.058594 508.378906 428.148438 509.066406 C 427.234375 509.75 426.292969 510.394531 425.324219 510.992188 C 424.355469 511.59375 423.359375 512.148438 422.339844 512.660156 C 421.316406 513.171875 420.277344 513.636719 419.214844 514.050781 C 418.152344 514.46875 417.074219 514.835938 415.980469 515.15625 C 414.886719 515.476562 413.777344 515.746094 412.65625 515.964844 C 411.539062 516.183594 410.410156 516.355469 409.277344 516.472656 C 408.140625 516.589844 407.003906 516.65625 405.863281 516.671875 C 404.722656 516.6875 403.585938 516.652344 402.445312 516.566406 C 401.308594 516.476562 400.179688 516.339844 399.054688 516.148438 C 397.929688 515.960938 396.816406 515.722656 395.710938 515.433594 C 394.609375 515.140625 393.519531 514.804688 392.445312 514.414062 L 525.945312 335.289062 L 401.742188 173.4375 C 420.167969 166.777344 440.707031 174.003906 450.957031 190.6875 L 543.5 315.722656 L 636.59375 191.175781 C 637.117188 190.179688 637.6875 189.207031 638.304688 188.265625 C 638.917969 187.320312 639.574219 186.40625 640.273438 185.519531 C 640.972656 184.632812 641.707031 183.785156 642.484375 182.964844 C 643.257812 182.148438 644.070312 181.367188 644.914062 180.621094 C 645.761719 179.878906 646.640625 179.175781 647.550781 178.511719 C 648.460938 177.847656 649.402344 177.226562 650.367188 176.648438 C 651.335938 176.070312 652.328125 175.535156 653.34375 175.046875 C 654.359375 174.558594 655.394531 174.117188 656.449219 173.722656 C 657.503906 173.328125 658.578125 172.984375 659.664062 172.6875 C 660.75 172.390625 661.851562 172.144531 662.960938 171.949219 C 664.070312 171.753906 665.1875 171.605469 666.308594 171.511719 C 667.433594 171.417969 668.558594 171.375 669.683594 171.382812 C 670.8125 171.386719 671.933594 171.449219 673.054688 171.558594 C 674.179688 171.667969 675.292969 171.828125 676.398438 172.039062 C 677.507812 172.25 678.601562 172.511719 679.683594 172.824219 C 680.765625 173.132812 681.835938 173.496094 682.882812 173.902344 L 634.746094 237.859375 L 569.457031 322.847656 C 569.003906 323.25 568.578125 323.675781 568.167969 324.125 C 567.761719 324.574219 567.378906 325.042969 567.023438 325.53125 C 566.664062 326.019531 566.335938 326.527344 566.03125 327.050781 C 565.726562 327.574219 565.449219 328.113281 565.203125 328.664062 C 564.957031 329.21875 564.738281 329.78125 564.550781 330.359375 C 564.363281 330.933594 564.203125 331.519531 564.078125 332.109375 C 563.949219 332.703125 563.855469 333.300781 563.792969 333.902344 C 563.730469 334.503906 563.695312 335.109375 563.695312 335.714844 C 563.695312 336.320312 563.730469 336.925781 563.792969 337.527344 C 563.855469 338.128906 563.949219 338.726562 564.078125 339.320312 C 564.203125 339.910156 564.363281 340.496094 564.550781 341.070312 C 564.738281 341.648438 564.957031 342.210938 565.203125 342.765625 C 565.449219 343.316406 565.726562 343.855469 566.03125 344.378906 C 566.335938 344.902344 566.664062 345.410156 567.023438 345.898438 C 567.378906 346.386719 567.761719 346.855469 568.167969 347.304688 C 568.578125 347.753906 569.003906 348.179688 569.457031 348.582031 L 693.804688 514.578125 Z M 1260.839844 171.710938 L 1260.839844 196.066406 C 1258.664062 195.925781 1256.484375 195.839844 1254.304688 195.808594 C 1252.121094 195.78125 1249.941406 195.808594 1247.765625 195.894531 C 1245.585938 195.980469 1243.410156 196.121094 1241.238281 196.320312 C 1239.066406 196.519531 1236.902344 196.773438 1234.742188 197.085938 C 1232.585938 197.398438 1230.4375 197.765625 1228.296875 198.1875 C 1226.15625 198.613281 1224.03125 199.09375 1221.917969 199.628906 C 1219.800781 200.164062 1217.703125 200.753906 1215.621094 201.398438 C 1213.539062 202.042969 1211.472656 202.742188 1209.425781 203.496094 C 1207.378906 204.246094 1205.351562 205.054688 1203.347656 205.910156 C 1201.34375 206.769531 1199.363281 207.679688 1197.40625 208.640625 C 1195.449219 209.605469 1193.519531 210.617188 1191.613281 211.679688 C 1189.710938 212.742188 1187.835938 213.855469 1185.988281 215.015625 C 1184.140625 216.175781 1182.328125 217.386719 1180.546875 218.640625 C 1178.761719 219.898438 1177.011719 221.199219 1175.296875 222.546875 C 1173.582031 223.894531 1171.902344 225.285156 1170.261719 226.71875 C 1168.621094 228.152344 1167.015625 229.628906 1165.449219 231.148438 C 1163.886719 232.667969 1162.359375 234.226562 1160.878906 235.824219 C 1159.394531 237.421875 1157.953125 239.058594 1156.554688 240.734375 C 1155.15625 242.40625 1153.800781 244.117188 1152.492188 245.859375 C 1151.183594 247.605469 1149.921875 249.382812 1148.707031 251.191406 C 1147.488281 253.003906 1146.320312 254.84375 1145.199219 256.714844 C 1144.082031 258.585938 1143.011719 260.484375 1141.988281 262.414062 C 1140.96875 264.339844 1140 266.292969 1139.082031 268.269531 C 1138.160156 270.25 1137.296875 272.25 1136.480469 274.273438 C 1135.667969 276.296875 1134.90625 278.339844 1134.199219 280.402344 C 1133.492188 282.464844 1132.835938 284.546875 1132.238281 286.644531 C 1131.640625 288.742188 1131.097656 290.851562 1130.605469 292.976562 C 1130.117188 295.101562 1129.6875 297.238281 1129.308594 299.386719 C 1128.933594 301.535156 1128.613281 303.691406 1128.347656 305.859375 C 1128.082031 308.023438 1127.875 310.191406 1127.722656 312.367188 C 1127.574219 314.546875 1127.480469 316.722656 1127.441406 318.902344 C 1127.40625 321.085938 1127.425781 323.265625 1127.5 325.445312 C 1127.5 382.332031 1127.5 439.21875 1127.5 496.105469 L 1127.5 515.449219 L 1102.804688 515.449219 L 1102.804688 173.234375 L 1127.15625 173.234375 L 1127.15625 243.359375 C 1157.03125 192.210938 1203.140625 173.234375 1261 171.851562 Z M 72.84375 333.054688 L 83.722656 279.328125 C 113.597656 173.089844 235.367188 128.882812 319.140625 194.6875 C 368.195312 233.210938 380.433594 287.792969 378.039062 349.292969 L 101.683594 349.292969 C 97.21875 459.144531 176.46875 525.476562 277.84375 491.621094 C 311.246094 479.441406 336.394531 451.675781 344.671875 417.167969 C 350.03125 399.917969 358.878906 396.953125 375.074219 401.945312 C 374.402344 407.1875 373.433594 412.375 372.175781 417.503906 C 370.917969 422.636719 369.371094 427.679688 367.542969 432.636719 C 365.714844 437.597656 363.613281 442.433594 361.234375 447.152344 C 358.859375 451.875 356.226562 456.445312 353.332031 460.867188 C 350.441406 465.289062 347.308594 469.53125 343.9375 473.601562 C 340.5625 477.667969 336.972656 481.53125 333.164062 485.195312 C 329.355469 488.855469 325.351562 492.292969 321.15625 495.5 C 316.957031 498.710938 312.59375 501.671875 308.0625 504.386719 C 304.335938 506.425781 300.535156 508.316406 296.660156 510.054688 C 292.785156 511.796875 288.847656 513.382812 284.847656 514.8125 C 280.847656 516.242188 276.796875 517.515625 272.699219 518.628906 C 268.601562 519.742188 264.464844 520.691406 260.289062 521.480469 C 256.117188 522.269531 251.917969 522.894531 247.695312 523.351562 C 243.472656 523.808594 239.238281 524.101562 234.992188 524.230469 C 230.746094 524.355469 226.503906 524.316406 222.261719 524.109375 C 218.015625 523.902344 213.789062 523.53125 209.578125 522.992188 C 205.363281 522.453125 201.175781 521.75 197.019531 520.882812 C 192.859375 520.015625 188.742188 518.988281 184.664062 517.796875 C 180.589844 516.605469 176.5625 515.257812 172.59375 513.75 C 168.621094 512.246094 164.714844 510.585938 160.871094 508.773438 C 157.03125 506.960938 153.265625 505 149.578125 502.890625 C 145.890625 500.78125 142.292969 498.53125 138.78125 496.140625 C 135.269531 493.75 131.859375 491.226562 128.546875 488.566406 C 125.234375 485.910156 122.027344 483.125 118.933594 480.214844 C 94.257812 452.46875 79.359375 417.394531 76.457031 380.347656 C 76.457031 374.261719 74.429688 368.578125 73.007812 363.097656 C 72.871094 352.851562 72.804688 342.839844 72.804688 333.054688 Z M 102.027344 325.628906 L 351.9375 325.628906 C 350.375 246 300.125 189.511719 233.113281 188.984375 C 158.507812 187.96875 105.132812 243.21875 101.847656 325.28125 Z M 102.027344 325.628906 " fill-opacity="1" fill-rule="nonzero"/></g></svg>