<svg xmlns="http://www.w3.org/2000/svg" xmlns:xlink="http://www.w3.org/1999/xlink" width="1024" zoomAndPan="magnify" viewBox="0 0 768 767.999994" height="1024" preserveAspectRatio="xMidYMid meet" version="1.0"><path fill="rgb(24.708557%, 50.979614%, 72.549438%)" d="M 651.074219 359.40625 L 408.839844 117.195312 C 394.90625 103.238281 372.277344 103.238281 358.320312 117.191406 L 308.007812 167.492188 L 371.824219 231.300781 C 386.648438 226.292969 403.660156 229.652344 415.472656 241.472656 C 427.347656 253.371094 430.6875 270.519531 425.550781 285.394531 L 487.054688 346.902344 C 501.921875 341.765625 519.085938 345.082031 530.984375 356.980469 C 547.585938 373.582031 547.585938 400.496094 530.984375 417.097656 C 514.363281 433.722656 487.46875 433.722656 470.84375 417.097656 C 458.339844 404.59375 455.261719 386.257812 461.589844 370.871094 L 404.246094 313.515625 L 404.222656 464.429688 C 408.277344 466.445312 412.089844 469.113281 415.472656 472.472656 C 432.074219 489.074219 432.074219 515.988281 415.472656 532.613281 C 398.871094 549.214844 371.933594 549.214844 355.351562 532.613281 C 338.75 515.988281 338.75 489.074219 355.351562 472.472656 C 359.449219 468.375 364.195312 465.277344 369.265625 463.195312 L 369.265625 310.875 C 364.195312 308.804688 359.46875 305.722656 355.351562 301.59375 C 342.761719 289.03125 339.75 270.566406 346.183594 255.117188 L 283.292969 192.207031 L 117.195312 358.300781 C 103.238281 372.257812 103.238281 394.882812 117.195312 408.839844 L 359.429688 651.074219 C 373.386719 665.007812 396.011719 665.007812 409.96875 651.074219 L 651.074219 409.96875 C 665.03125 396.011719 665.03125 373.363281 651.074219 359.40625 " fill-opacity="1" fill-rule="nonzero"/></svg>