<svg xmlns="http://www.w3.org/2000/svg" xmlns:xlink="http://www.w3.org/1999/xlink" width="1024" zoomAndPan="magnify" viewBox="0 0 768 767.999994" height="1024" preserveAspectRatio="xMidYMid meet" version="1.0"><defs><clipPath id="id1"><path d="M 124.167969 84 L 649.167969 84 L 649.167969 681 L 124.167969 681 Z M 124.167969 84 " clip-rule="nonzero"/></clipPath></defs><g clip-path="url(#id1)"><path fill="rgb(24.708557%, 50.979614%, 72.549438%)" d="M 171.828125 621.132812 L 124.019531 84.785156 L 649.316406 84.785156 L 601.472656 621.058594 L 386.332031 680.6875 Z M 171.828125 621.132812 " fill-opacity="1" fill-rule="nonzero"/></g><path fill="rgb(30.979919%, 56.469727%, 76.078796%)" d="M 560.496094 586.902344 L 601.398438 128.640625 L 386.667969 128.640625 L 386.667969 635.117188 Z M 560.496094 586.902344 " fill-opacity="1" fill-rule="nonzero"/><path fill="rgb(92.158508%, 92.158508%, 92.158508%)" d="M 386.445312 194.414062 L 221.757812 194.414062 L 239.5 393.339844 L 386.667969 393.339844 L 386.667969 327.566406 L 299.652344 327.566406 L 293.640625 260.207031 L 386.667969 260.207031 L 386.667969 194.414062 Z M 386.667969 498.1875 L 386.390625 498.261719 L 313.148438 478.484375 L 308.496094 426.023438 L 242.441406 426.023438 L 251.65625 529.304688 L 386.371094 566.550781 L 386.667969 566.457031 Z M 386.667969 498.1875 " fill-opacity="1" fill-rule="nonzero"/><path fill="rgb(100%, 100%, 100%)" d="M 386.445312 393.339844 L 467.429688 393.339844 L 459.980469 478.632812 L 386.632812 498.429688 L 386.632812 566.867188 L 521.457031 529.492188 L 539.515625 327.527344 L 386.667969 327.527344 Z M 549.605469 212.070312 L 551.167969 194.414062 L 386.40625 194.414062 L 386.40625 260.191406 L 545.25 260.191406 L 546.550781 245.402344 Z M 549.605469 212.070312 " fill-opacity="1" fill-rule="nonzero"/></svg>