<svg xmlns="http://www.w3.org/2000/svg" xmlns:xlink="http://www.w3.org/1999/xlink" width="1024" zoomAndPan="magnify" viewBox="0 0 768 767.999994" height="1024" preserveAspectRatio="xMidYMid meet" version="1.0"><defs><clipPath id="id1"><path d="M 99.277344 98.691406 L 669.277344 98.691406 L 669.277344 668.691406 L 99.277344 668.691406 Z M 99.277344 98.691406 " clip-rule="nonzero"/></clipPath></defs><g clip-path="url(#id1)"><path fill="rgb(24.708557%, 50.979614%, 72.549438%)" d="M 151.097656 98.691406 C 122.464844 98.691406 99.277344 121.882812 99.277344 150.511719 L 99.277344 616.875 C 99.277344 645.503906 122.464844 668.691406 151.097656 668.691406 L 617.460938 668.691406 C 646.089844 668.691406 669.277344 645.503906 669.277344 616.875 L 669.277344 150.511719 C 669.277344 121.882812 646.089844 98.691406 617.460938 98.691406 Z M 505.019531 234.664062 C 521.132812 234.664062 532.140625 244.9375 532.140625 258.953125 C 532.140625 272.972656 521.132812 283.246094 505.019531 283.246094 C 489.085938 283.246094 477.945312 272.972656 477.945312 258.953125 C 477.945312 244.9375 489.085938 234.664062 505.019531 234.664062 Z M 301.1875 252.933594 L 352.550781 252.933594 L 443.382812 508.53125 L 394.347656 508.53125 L 372.742188 443.203125 L 278.71875 443.203125 L 256.707031 508.53125 L 210.503906 508.53125 Z M 324.363281 301.613281 L 289.34375 407.019531 L 362.113281 407.019531 L 327.398438 301.613281 Z M 483.257812 314.769531 L 526.980469 314.769531 L 526.980469 508.53125 L 483.257812 508.53125 Z M 483.257812 314.769531 " fill-opacity="1" fill-rule="nonzero"/></g></svg>