<svg xmlns="http://www.w3.org/2000/svg" xmlns:xlink="http://www.w3.org/1999/xlink" width="1024" zoomAndPan="magnify" viewBox="0 0 768 767.999994" height="1024" preserveAspectRatio="xMidYMid meet" version="1.0"><defs><clipPath id="id1"><path d="M 111.570312 111.570312 L 656.070312 111.570312 L 656.070312 656.070312 L 111.570312 656.070312 Z M 111.570312 111.570312 " clip-rule="nonzero"/></clipPath></defs><g clip-path="url(#id1)"><path fill="rgb(24.708557%, 50.979614%, 72.549438%)" d="M 621.53125 111.570312 L 146.160156 111.570312 C 127.066406 111.570312 111.570312 127.066406 111.570312 146.160156 L 111.570312 621.480469 C 111.570312 640.574219 127.066406 656.070312 146.160156 656.070312 L 621.480469 656.070312 C 640.574219 656.070312 656.070312 640.574219 656.070312 621.53125 L 656.070312 146.160156 C 656.070312 127.066406 640.574219 111.570312 621.53125 111.570312 Z M 409.75 528.808594 C 409.75 580.613281 379.363281 604.214844 335.003906 604.214844 C 294.894531 604.214844 265.976562 577.324219 254.179688 552.355469 L 294.945312 527.695312 C 302.792969 541.621094 314.746094 552.355469 331.964844 552.355469 C 348.421875 552.355469 357.890625 545.925781 357.890625 520.90625 L 357.890625 357.890625 L 409.75 357.890625 Z M 522.222656 604.214844 C 476.292969 604.214844 450.210938 581.070312 435.679688 552.355469 L 474.570312 526.429688 C 485.15625 543.746094 496.699219 560.308594 521.109375 560.308594 C 541.621094 560.308594 552.355469 550.078125 552.355469 535.898438 C 552.355469 518.984375 541.214844 512.957031 518.679688 503.082031 L 506.324219 497.765625 C 470.621094 482.570312 446.871094 463.53125 446.871094 423.21875 C 446.871094 386.148438 475.179688 357.890625 519.339844 357.890625 C 550.785156 357.890625 573.371094 368.832031 589.679688 397.492188 L 551.191406 422.257812 C 542.683594 407.015625 533.566406 401.039062 519.339844 401.039062 C 504.855469 401.039062 495.6875 410.253906 495.6875 422.257812 C 495.6875 437.097656 504.855469 443.070312 526.074219 452.289062 L 538.429688 457.605469 C 580.511719 475.582031 604.214844 493.964844 604.214844 535.289062 C 604.214844 579.804688 569.21875 604.214844 522.222656 604.214844 Z M 522.222656 604.214844 " fill-opacity="1" fill-rule="nonzero"/></g></svg>