<svg xmlns="http://www.w3.org/2000/svg" xmlns:xlink="http://www.w3.org/1999/xlink" width="1024" zoomAndPan="magnify" viewBox="0 0 768 767.999994" height="1024" preserveAspectRatio="xMidYMid meet" version="1.0"><defs><clipPath id="id1"><path d="M 289 76.800781 L 386 76.800781 L 386 449 L 289 449 Z M 289 76.800781 " clip-rule="nonzero"/></clipPath><clipPath id="id2"><path d="M 376 395 L 401 395 L 401 500.550781 L 376 500.550781 Z M 376 395 " clip-rule="nonzero"/></clipPath></defs><path fill="rgb(24.708557%, 50.979614%, 72.549438%)" d="M 156.703125 591.515625 L 156.703125 605.398438 C 156.6875 605.949219 156.71875 606.496094 156.796875 607.042969 C 156.980469 608.6875 157.988281 609.691406 159.472656 610.152344 C 160.863281 610.515625 162.265625 610.789062 163.6875 610.972656 C 164.511719 611.066406 164.785156 611.429688 164.878906 612.3125 C 164.972656 615.417969 164.699219 615.785156 161.683594 615.597656 C 154.644531 615.230469 147.597656 615.144531 140.5625 615.597656 L 139.890625 615.597656 C 137.695312 615.691406 137.515625 615.507812 137.515625 613.3125 C 137.515625 612.945312 137.609375 612.492188 137.609375 612.125 C 137.609375 611.453125 138.066406 611.121094 138.707031 611.121094 C 140.179688 610.941406 141.542969 610.574219 142.921875 610.296875 C 144.84375 609.84375 145.933594 608.652344 146.121094 606.734375 C 146.386719 604.636719 146.386719 602.445312 146.386719 600.339844 L 146.480469 575.859375 C 146.511719 575.136719 146.347656 574.457031 145.984375 573.832031 C 145.621094 573.203125 145.117188 572.71875 144.472656 572.382812 C 142.816406 571.460938 141.074219 570.730469 139.257812 570.191406 C 138.707031 570.011719 138.160156 569.921875 137.703125 569.644531 C 136.367188 569 136.332031 567.816406 137.609375 567.082031 C 138.066406 566.816406 138.613281 566.628906 139.164062 566.535156 C 144.726562 565.714844 150.148438 564.34375 155.433594 562.421875 C 156.53125 562.054688 156.804688 562.15625 156.90625 563.246094 C 157 563.914062 156.90625 564.714844 156.8125 565.34375 C 156.628906 566.535156 156.628906 567.71875 156.628906 568.820312 C 156.628906 569.273438 156.722656 569.738281 157.179688 570.011719 C 157.632812 570.285156 158.097656 570.011719 158.515625 569.742188 C 160.4375 568.273438 162.359375 566.910156 164.457031 565.734375 C 167.46875 564.089844 170.679688 562.625 174.160156 562.167969 C 178.375 561.621094 182.019531 562.71875 185.226562 565.457031 C 186.554688 566.648438 187.714844 567.988281 188.699219 569.476562 C 189.613281 570.8125 189.699219 570.847656 190.890625 569.929688 C 194.371094 567.371094 198.023438 565.089844 201.957031 563.445312 C 206.074219 561.707031 210.28125 561.441406 214.480469 562.898438 C 218.777344 564.449219 221.707031 567.464844 223.445312 571.574219 C 224.917969 574.863281 225.546875 578.257812 225.546875 581.800781 L 225.546875 606.28125 C 225.546875 607.925781 226.21875 608.953125 227.835938 609.757812 C 229.574219 610.425781 231.496094 610.761719 233.320312 611.128906 C 234.511719 611.394531 234.511719 611.394531 234.511719 612.597656 C 234.332031 615.605469 234.058594 615.792969 231.128906 615.605469 C 223.785156 615.195312 216.441406 615.195312 209.097656 615.605469 C 207.625 615.699219 207.625 615.699219 207.542969 614.234375 L 207.542969 613.78125 C 207.449219 611.308594 207.449219 611.308594 209.832031 610.773438 L 212.207031 610.132812 C 212.609375 610.035156 212.984375 609.878906 213.335938 609.65625 C 213.683594 609.4375 213.988281 609.164062 214.242188 608.839844 C 214.5 608.519531 214.699219 608.160156 214.835938 607.773438 C 214.972656 607.382812 215.042969 606.980469 215.042969 606.570312 L 215.3125 599.71875 L 215.132812 581.816406 C 215.058594 580.207031 214.726562 578.652344 214.128906 577.15625 C 211.839844 571.582031 206.816406 569.574219 201.964844 570.125 C 198.304688 570.492188 195.105469 571.949219 192.089844 574.054688 C 191.445312 574.507812 190.992188 575.058594 191.085938 575.972656 C 191.910156 581.820312 191.355469 587.671875 191.453125 593.511719 L 191.453125 606.214844 C 191.453125 608.5 192.371094 609.597656 194.566406 610.144531 L 198.78125 611.0625 C 199.421875 611.152344 199.785156 611.429688 199.785156 612.15625 L 199.785156 612.824219 C 199.691406 615.386719 199.515625 615.5 196.945312 615.472656 C 189.632812 615.105469 182.316406 615.203125 175.097656 615.472656 C 172.621094 615.566406 172.421875 615.292969 172.535156 612.796875 C 172.628906 611.328125 172.800781 611.246094 174.179688 610.972656 L 177.191406 610.425781 C 179.867188 609.878906 180.851562 608.875 181.03125 606.039062 L 181.296875 599.917969 L 181.117188 581.554688 C 180.9375 579.269531 180.449219 577.078125 179.199219 574.976562 C 177.371094 571.59375 174.515625 569.863281 170.601562 569.675781 C 166.667969 569.410156 163.195312 570.867188 159.894531 572.683594 C 157.609375 574.019531 156.605469 575.605469 156.785156 578.257812 L 156.785156 591.59375 Z M 328.960938 592.070312 L 328.960938 604.949219 C 328.972656 605.867188 329.035156 606.78125 329.140625 607.691406 C 329.160156 607.996094 329.226562 608.289062 329.339844 608.570312 C 329.457031 608.851562 329.613281 609.105469 329.808594 609.335938 C 330.007812 609.566406 330.238281 609.761719 330.5 609.917969 C 330.757812 610.074219 331.039062 610.1875 331.335938 610.25 C 332.917969 610.710938 334.53125 610.988281 336.179688 611.074219 C 337.09375 611.167969 337.277344 611.527344 337.371094 612.265625 L 337.371094 612.90625 C 337.277344 616.101562 336.914062 616.46875 333.804688 616.289062 C 326.847656 615.832031 319.90625 615.921875 312.957031 616.289062 L 310.28125 616.382812 C 309.730469 616.382812 309.613281 616.113281 309.457031 615.738281 C 309.1875 614.460938 309.1875 613.183594 309.457031 611.902344 C 309.550781 611.355469 309.914062 611.234375 310.460938 611.082031 C 311.800781 610.898438 312.9375 610.625 314.207031 610.414062 C 316.496094 609.863281 317.320312 608.941406 317.40625 606.574219 L 317.671875 598.902344 L 317.671875 576.429688 C 317.671875 574.785156 317.03125 573.78125 315.574219 573.046875 C 313.925781 572.128906 312.1875 571.496094 310.355469 570.851562 C 309.804688 570.671875 309.257812 570.484375 308.800781 570.210938 C 307.609375 569.390625 307.464844 568.207031 308.621094 567.289062 C 309.152344 566.851562 309.761719 566.609375 310.449219 566.554688 C 316.300781 565.640625 321.96875 564.363281 327.453125 562.167969 C 328.097656 561.902344 328.371094 562.074219 328.644531 562.625 C 328.917969 563.171875 329.011719 563.8125 328.914062 564.449219 L 328.644531 568.742188 C 328.644531 569.289062 328.378906 570.078125 328.828125 570.292969 C 329.375 570.660156 329.742188 569.835938 330.199219 569.621094 C 332.910156 567.351562 335.867188 565.464844 339.070312 563.960938 C 341.90625 562.625 344.824219 561.769531 348.121094 561.957031 C 354.25 562.324219 358.636719 565.433594 361.46875 570.820312 C 362.941406 573.652344 363.570312 576.753906 363.84375 579.957031 L 364.109375 586.640625 L 364.203125 606.828125 C 364.296875 608.378906 364.847656 609.390625 366.398438 609.9375 C 368.011719 610.472656 369.65625 610.871094 371.335938 611.128906 C 372.808594 611.308594 372.886719 611.582031 372.980469 612.953125 L 372.980469 613.40625 C 372.800781 616.515625 372.613281 616.601562 369.503906 616.414062 C 362.675781 616.050781 355.851562 616.050781 349.023438 616.414062 C 348.109375 616.507812 347.199219 616.414062 346.347656 616.507812 C 345.800781 616.507812 345.429688 616.414062 345.34375 615.867188 C 345.164062 614.675781 344.976562 613.492188 345.25 612.210938 C 345.34375 611.664062 345.617188 611.386719 346.253906 611.292969 L 350.46875 610.625 C 351.941406 610.257812 352.757812 609.289062 352.945312 607.953125 L 353.125 605.390625 L 353.03125 586.300781 C 353.03125 584.109375 352.9375 581.914062 352.484375 579.722656 C 351.386719 575.042969 347.820312 571.703125 342.984375 571.234375 C 338.769531 570.78125 334.953125 571.875 331.460938 574.15625 C 329.722656 575.25 328.988281 576.800781 328.988281 578.71875 L 328.988281 592.519531 C 328.988281 592.25 328.988281 592.25 329.082031 592.25 Z M 328.960938 592.070312 " fill-opacity="1" fill-rule="nonzero"/><path fill="rgb(76.078796%, 74.899292%, 74.899292%)" d="M 596.726562 566.214844 C 595.722656 559.542969 593.246094 553.605469 588.953125 548.398438 C 587.082031 546.097656 584.953125 544.066406 582.570312 542.304688 C 580.183594 540.539062 577.617188 539.101562 574.871094 537.984375 C 569.117188 535.613281 562.980469 534.875 556.765625 534.695312 C 554.203125 534.601562 519.28125 535.152344 516.71875 534.695312 C 516.074219 534.601562 515.621094 534.789062 515.246094 535.335938 C 514.789062 536.007812 514.328125 536.707031 514.054688 537.4375 C 512.957031 539.910156 512.957031 539.722656 515.605469 540.082031 C 517.800781 540.453125 519.902344 540.632812 522.007812 541.273438 C 523.929688 541.914062 525.300781 543.011719 525.753906 545.109375 C 525.9375 546.113281 526.125 578.265625 526.125 593.253906 L 525.753906 603.949219 C 525.660156 604.769531 525.574219 605.59375 525.300781 606.320312 C 524.933594 607.417969 524.296875 608.328125 523.199219 608.792969 C 521.980469 609.367188 520.703125 609.703125 519.359375 609.796875 C 516.882812 610.066406 516.523438 610.164062 515.699219 612.90625 L 515.433594 613.910156 C 515.25 615.097656 515.339844 615.277344 516.53125 615.277344 L 543.867188 615.546875 L 554.570312 615.367188 L 561.976562 614.449219 C 570.386719 612.898438 577.886719 609.421875 584.28125 603.855469 C 587.972656 600.597656 590.898438 596.761719 593.058594 592.34375 C 595.621094 587.230469 596.71875 581.648438 596.992188 575.992188 C 597.449219 572.796875 597.261719 569.507812 596.726562 566.21875 Z M 583.464844 579.183594 C 583.097656 585.03125 581.914062 590.691406 578.898438 595.804688 C 575.054688 602.476562 569.570312 607.136719 561.984375 608.773438 C 558.691406 609.441406 555.398438 609.777344 551.949219 609.324219 C 549.472656 609.054688 547.105469 608.773438 544.816406 607.953125 C 540.703125 606.480469 539.238281 603.941406 539.148438 599.929688 L 539.054688 544.851562 C 539.054688 541.5625 540.527344 540.839844 542.894531 540.738281 C 546.460938 540.472656 550.121094 540.558594 553.6875 540.917969 C 557.503906 541.289062 561.191406 542.179688 564.753906 543.59375 C 567.402344 544.695312 569.8125 546.191406 571.980469 548.070312 C 576.917969 552.28125 580.207031 557.5625 582.015625 563.78125 C 583.484375 568.808594 583.753906 573.921875 583.484375 579.035156 Z M 672.714844 588.140625 C 672.714844 587.589844 672.714844 587.136719 672.621094 586.589844 C 671.796875 581.5625 669.140625 577.726562 665.035156 574.804688 C 662.386719 572.886719 659.367188 571.609375 656.257812 570.691406 C 655.707031 570.511719 655.253906 570.324219 654.703125 570.238281 C 654.796875 569.785156 655.074219 569.691406 655.347656 569.597656 C 657.171875 568.679688 658.914062 567.675781 660.464844 566.308594 C 663.300781 563.933594 665.148438 561.007812 666.132812 557.445312 C 666.679688 555.523438 666.679688 553.605469 666.5 551.59375 C 666.425781 550.417969 666.21875 549.265625 665.886719 548.132812 C 665.550781 547.003906 665.09375 545.921875 664.515625 544.894531 C 663.9375 543.867188 663.253906 542.914062 662.460938 542.042969 C 661.667969 541.167969 660.789062 540.390625 659.824219 539.714844 C 655.609375 536.609375 650.675781 535.332031 645.558594 535.238281 C 635.683594 535.058594 625.722656 535.238281 615.855469 535.238281 C 613.015625 535.238281 610.1875 535.417969 607.257812 534.96875 C 606.707031 534.875 605.917969 534.703125 605.515625 535.335938 C 604.847656 536.527344 604.046875 537.710938 603.777344 539.082031 C 603.683594 539.722656 603.871094 540.082031 604.601562 540.175781 L 610.910156 541.09375 C 613.386719 541.460938 615.125 542.832031 615.296875 545.023438 C 615.476562 546.539062 615.566406 548.0625 615.566406 549.589844 L 615.386719 566.667969 L 615.292969 600.464844 C 615.292969 602.472656 615.023438 604.394531 614.648438 606.402344 C 614.558594 607.050781 614.296875 607.625 613.867188 608.121094 C 613.4375 608.617188 612.90625 608.957031 612.273438 609.140625 C 610.449219 609.691406 608.707031 610.238281 606.789062 610.238281 C 606.53125 610.214844 606.277344 610.234375 606.027344 610.292969 C 605.777344 610.355469 605.546875 610.457031 605.328125 610.597656 C 605.113281 610.738281 604.925781 610.910156 604.769531 611.117188 C 604.613281 611.320312 604.496094 611.542969 604.414062 611.789062 C 604.046875 612.613281 603.746094 613.527344 603.589844 614.347656 C 603.410156 615.445312 603.683594 615.820312 604.78125 615.6875 C 605.605469 615.59375 635.777344 616.328125 641.445312 615.78125 C 644.828125 615.414062 648.132812 614.957031 651.5 613.953125 C 657.253906 612.128906 662.566406 609.476562 666.765625 604.996094 C 670.246094 601.339844 672.253906 596.957031 672.433594 591.84375 C 672.703125 590.652344 672.703125 589.46875 672.703125 588.1875 Z M 628.371094 550.707031 L 628.640625 543.398438 C 628.640625 542.027344 629.1875 541.394531 630.558594 541.113281 C 632.753906 540.660156 634.949219 540.847656 637.144531 540.933594 C 639.335938 541.113281 641.4375 541.386719 643.632812 542.027344 C 647.648438 543.21875 650.765625 545.503906 652.597656 549.335938 C 653.4375 551.097656 653.867188 552.957031 653.875 554.910156 C 653.96875 557.46875 653.78125 559.9375 652.777344 562.398438 C 651.226562 565.777344 648.765625 567.972656 645.191406 568.613281 C 641.617188 569.253906 631.476562 568.980469 629.925781 568.980469 C 628.550781 568.980469 628.453125 568.800781 628.453125 567.429688 L 628.453125 558.828125 C 628.238281 556.148438 628.207031 553.46875 628.359375 550.785156 Z M 658.078125 599.851562 C 656.523438 603.960938 653.6875 606.800781 649.667969 608.339844 C 647.472656 609.164062 645.277344 609.675781 642.976562 609.53125 C 640.140625 609.4375 637.308594 609.53125 634.480469 608.980469 C 630.640625 608.160156 628.898438 604.503906 628.625 601.855469 C 628.171875 597.195312 628.445312 592.445312 628.359375 588.976562 L 628.359375 576.914062 C 628.359375 575.445312 628.539062 574.996094 630.097656 574.996094 L 638.695312 575.089844 L 644.550781 575.757812 C 648.664062 576.675781 652.410156 578.234375 655.339844 581.421875 C 657.714844 583.980469 659 587.082031 659.273438 590.464844 C 659.542969 593.660156 659.367188 596.769531 658.175781 599.785156 Z M 658.078125 599.851562 " fill-opacity="1" fill-rule="nonzero"/><path fill="rgb(24.708557%, 50.979614%, 72.549438%)" d="M 425.789062 572.332031 L 428.164062 572.699219 C 430.726562 572.792969 433.742188 571.875 434.652344 568.3125 C 435.167969 566.574219 435.167969 564.835938 434.652344 563.097656 C 434.105469 563.097656 433.832031 563.554688 433.554688 563.742188 C 432.183594 564.835938 430.632812 565.476562 428.988281 565.660156 C 425.695312 566.027344 422.402344 565.839844 419.207031 564.65625 L 414.722656 563.105469 C 411.570312 562.074219 408.335938 561.648438 405.023438 561.835938 C 400.359375 562.203125 395.96875 563.753906 391.855469 565.945312 C 387.46875 568.320312 384.363281 571.882812 382.890625 576.730469 C 382.066406 579.5625 381.972656 582.476562 382.34375 585.40625 C 383.257812 592.078125 386.730469 596.734375 392.945312 599.203125 C 393.3125 599.296875 393.589844 599.46875 393.949219 599.570312 C 394.773438 600.023438 394.867188 600.484375 394.128906 601.121094 L 391.84375 602.671875 L 386.355469 606.054688 C 384.984375 606.875 384.804688 607.523438 385.257812 608.976562 C 385.8125 610.714844 386.789062 612.175781 388.183594 613.359375 C 389.445312 614.441406 390.847656 615.296875 392.390625 615.921875 C 393.394531 616.375 393.394531 616.589844 392.484375 617.390625 L 387.265625 621.132812 C 385.527344 622.472656 383.789062 623.808594 382.328125 625.519531 C 381.820312 626.0625 381.386719 626.65625 381.027344 627.304688 C 380.667969 627.957031 380.390625 628.636719 380.199219 629.355469 C 380.007812 630.074219 379.90625 630.800781 379.898438 631.542969 C 379.886719 632.285156 379.964844 633.019531 380.132812 633.742188 C 380.472656 635.328125 381.050781 636.820312 381.859375 638.226562 C 382.671875 639.628906 383.679688 640.875 384.882812 641.964844 C 387.300781 644.199219 390.101562 645.71875 393.292969 646.527344 C 398.414062 648 403.71875 648.078125 408.929688 647.078125 C 416.421875 645.707031 422.980469 642.398438 428.128906 636.757812 C 431.695312 633.011719 433.796875 628.628906 433.984375 623.386719 C 434.035156 622.636719 434.015625 621.882812 433.933594 621.136719 C 433.851562 620.386719 433.703125 619.652344 433.492188 618.929688 C 433.277344 618.203125 433.003906 617.507812 432.667969 616.832031 C 432.332031 616.15625 431.941406 615.515625 431.492188 614.910156 C 431.042969 614.304688 430.546875 613.742188 430 613.226562 C 429.453125 612.707031 428.863281 612.242188 428.234375 611.828125 C 427.601562 611.410156 426.941406 611.054688 426.25 610.757812 C 425.558594 610.460938 424.84375 610.222656 424.109375 610.050781 L 419.171875 609.136719 L 404.085938 607.796875 C 402.441406 607.703125 400.792969 607.429688 399.421875 606.609375 C 397.683594 605.511719 397.226562 603.414062 398.324219 602.042969 C 399.148438 601.039062 400.152344 600.398438 401.4375 600.304688 L 404.359375 600.039062 C 407.25 599.742188 410.019531 598.996094 412.664062 597.792969 C 415.308594 596.585938 417.6875 594.992188 419.808594 593.003906 C 422.117188 590.871094 423.671875 588.28125 424.472656 585.238281 C 425.566406 581.308594 425.566406 577.214844 424.652344 573.207031 C 424.382812 572.203125 424.472656 572.109375 425.75 572.289062 Z M 403.375 617.832031 C 403.925781 617.925781 404.472656 617.832031 405.023438 617.832031 C 408.863281 618.011719 412.796875 618.285156 416.542969 619.304688 C 417.769531 619.664062 418.957031 620.121094 420.109375 620.671875 C 423.769531 622.679688 425.140625 626.15625 424.679688 629.898438 C 424.128906 634.007812 421.839844 636.929688 418.277344 638.855469 C 415.902344 640.191406 413.246094 640.773438 410.5 641.046875 C 409.496094 641.140625 408.582031 641.046875 407.578125 641.046875 C 404.378906 641.140625 401.269531 640.78125 398.25 639.496094 C 396.152344 638.675781 394.410156 637.492188 392.859375 635.839844 C 389.660156 632.644531 388.175781 626.796875 392.953125 622.042969 C 395.875 619.371094 399.175781 617.476562 403.375 617.832031 Z M 413.800781 589.328125 C 411.878906 594.167969 407.671875 595.632812 403.46875 594.992188 C 399.628906 594.441406 396.792969 592.34375 394.972656 588.867188 C 392.597656 584.207031 391.960938 579.375 393.328125 574.34375 C 394.332031 570.597656 396.617188 567.765625 400.640625 567.121094 C 405.757812 566.207031 410.675781 568.039062 413.257812 573.152344 C 414.597656 575.625 415.179688 578.632812 415.179688 582.925781 C 415.085938 584.664062 414.722656 587.035156 413.804688 589.324219 Z M 298.605469 583.113281 C 297.78125 578.179688 295.957031 573.699219 292.570312 569.957031 C 287.539062 564.382812 281.144531 561.9375 273.917969 561.914062 C 267.609375 561.820312 261.675781 563.652344 256.363281 566.941406 C 255.070312 567.714844 253.859375 568.605469 252.734375 569.605469 C 251.609375 570.609375 250.589844 571.710938 249.675781 572.90625 C 248.757812 574.105469 247.964844 575.375 247.289062 576.722656 C 246.613281 578.070312 246.074219 579.46875 245.664062 580.917969 C 244.113281 586.222656 244.195312 591.613281 245.398438 596.996094 C 248.597656 611.433594 259.753906 617.636719 273.097656 616.730469 C 277.03125 616.460938 280.777344 615.179688 284.335938 613.441406 C 289.640625 610.96875 293.480469 607.042969 296.128906 601.835938 C 298.230469 597.542969 299.140625 592.972656 299.054688 587.765625 L 298.597656 583.105469 Z M 285.625 603.394531 C 285.300781 604.421875 284.832031 605.378906 284.226562 606.273438 C 283.617188 607.164062 282.898438 607.949219 282.0625 608.632812 C 281.222656 609.3125 280.308594 609.863281 279.3125 610.277344 C 278.316406 610.691406 277.28125 610.953125 276.207031 611.066406 C 272.191406 611.617188 268.433594 610.613281 265.054688 608.234375 C 262.578125 606.414062 260.660156 604.128906 259.292969 601.382812 C 255.546875 593.707031 254.90625 585.671875 256.816406 577.449219 C 257.445312 574.851562 258.726562 572.628906 260.660156 570.78125 C 264.042969 567.671875 267.972656 566.941406 272.367188 567.859375 C 276.582031 568.773438 279.773438 571.054688 282.402344 574.53125 C 285.03125 578.003906 286.242188 582.015625 286.972656 586.226562 C 287.339844 588.328125 287.339844 590.519531 287.425781 591.890625 C 287.425781 596.273438 287.058594 599.910156 285.6875 603.398438 Z M 498.378906 583.847656 C 497.710938 578.546875 495.730469 573.707031 491.976562 569.691406 C 487.039062 564.300781 480.636719 562.015625 473.511719 561.921875 C 467.382812 561.828125 461.714844 563.566406 456.503906 566.582031 C 450.648438 570.058594 446.628906 574.984375 445.078125 581.65625 C 444.617188 583.460938 444.316406 585.292969 444.179688 587.152344 C 444.042969 589.007812 444.066406 590.863281 444.253906 592.71875 C 444.441406 594.570312 444.785156 596.394531 445.292969 598.1875 C 445.800781 599.980469 446.460938 601.714844 447.269531 603.394531 C 450.28125 609.789062 455.40625 613.902344 462.175781 615.726562 C 469.671875 617.730469 476.808594 616.824219 483.753906 613.441406 C 489.789062 610.519531 494.082031 605.953125 496.550781 599.738281 C 498.023438 596.082031 498.558594 592.15625 498.652344 587.585938 C 498.746094 586.761719 498.558594 585.296875 498.386719 583.839844 Z M 485.761719 602.210938 C 484.289062 607.144531 481.191406 610.339844 475.980469 611.074219 C 472.140625 611.621094 468.488281 610.707031 465.1875 608.515625 C 462.351562 606.59375 460.34375 604.035156 458.878906 601.027344 C 457.234375 597.832031 456.316406 594.449219 455.957031 590.980469 C 455.40625 586.6875 455.40625 582.492188 456.410156 578.191406 C 456.601562 577.34375 456.875 576.519531 457.234375 575.726562 C 459.796875 569.328125 465.460938 566.40625 472.140625 567.871094 C 476.621094 568.875 480 571.347656 482.5625 575.089844 C 485.039062 578.746094 486.222656 582.765625 486.777344 587.125 C 487.046875 588.859375 487.144531 590.6875 487.046875 592.238281 C 487.046875 595.800781 486.777344 599.089844 485.707031 602.285156 Z M 485.761719 602.210938 " fill-opacity="1" fill-rule="nonzero"/><path fill="rgb(24.708557%, 50.979614%, 72.549438%)" d="M 383.238281 77.953125 L 394.542969 99.191406 C 397.085938 103.113281 399.839844 106.582031 403.085938 109.8125 C 412.550781 119.28125 421.542969 129.199219 429.617188 139.820312 C 448.777344 164.980469 461.699219 192.921875 470.925781 223.140625 C 476.460938 241.597656 479.46875 260.535156 479.691406 279.683594 C 480.621094 336.929688 460.996094 386.085938 421.433594 426.9375 C 414.972656 433.398438 408.0625 439.382812 400.648438 444.707031 C 396.730469 444.707031 394.875 441.703125 393.261719 438.933594 C 390.253906 433.863281 388.414062 428.074219 387.488281 422.316406 C 386.097656 415.390625 385.183594 408.464844 385.632812 401.3125 L 385.632812 398.082031 C 385.316406 397.394531 381.859375 79.582031 383.238281 77.953125 Z M 383.238281 77.953125 " fill-opacity="1" fill-rule="nonzero"/><g clip-path="url(#id1)"><path fill="rgb(30.979919%, 56.469727%, 76.078796%)" d="M 383.238281 77.25 C 382.773438 76.324219 382.308594 77.023438 381.847656 77.476562 C 382.070312 82.109375 380.457031 86.242188 377.925781 90.1875 C 375.148438 94.109375 371.464844 97.113281 367.773438 100.34375 C 347.25 118.117188 331.097656 139.582031 318.160156 163.589844 C 300.949219 195.902344 292.078125 230.527344 289.5625 266.984375 C 288.410156 280.132812 293.71875 326.535156 297.863281 339.921875 C 309.171875 375.464844 329.480469 405.246094 355.789062 431.09375 C 362.25 437.320312 369.164062 443.09375 376.3125 448.640625 C 378.390625 448.640625 378.617188 446.785156 379.09375 445.410156 C 380.003906 442.457031 380.699219 439.457031 381.171875 436.40625 L 385.804688 401.789062 Z M 383.238281 77.25 " fill-opacity="1" fill-rule="nonzero"/></g><g clip-path="url(#id2)"><path fill="rgb(76.078796%, 74.899292%, 74.899292%)" d="M 394.542969 458.769531 C 395.007812 453.472656 397.550781 449.078125 400.316406 444.695312 C 397.535156 443.542969 395.472656 441.25 393.855469 438.695312 C 392.464844 436.390625 391.3125 433.625 390.414062 431.082031 C 387.183594 421.386719 386.496094 411.21875 385.566406 401.3125 L 385.566406 395.316406 C 384.414062 396.242188 384.175781 404.082031 384.175781 405.246094 C 383.503906 415.726562 382.117188 426.113281 380.019531 436.40625 C 379.332031 440.5625 378.867188 444.707031 376.3125 448.402344 C 376.3125 448.867188 376.3125 449.328125 376.539062 450.019531 C 380.695312 462.253906 381.832031 474.714844 382.535156 487.414062 L 382.535156 492.046875 C 382.535156 497.585938 382.308594 496.417969 386.90625 498.273438 C 388.757812 498.960938 390.824219 499.199219 392.675781 500.578125 C 394.066406 500.578125 394.292969 499.425781 394.292969 498.496094 L 393.605469 490.882812 L 393.605469 469.644531 C 393.378906 465.933594 394.066406 462.253906 394.53125 458.785156 Z M 394.542969 458.769531 " fill-opacity="1" fill-rule="nonzero"/></g></svg>