<svg xmlns="http://www.w3.org/2000/svg" xmlns:xlink="http://www.w3.org/1999/xlink" width="1024" zoomAndPan="magnify" viewBox="0 0 768 767.999994" height="1024" preserveAspectRatio="xMidYMid meet" version="1.0"><defs><clipPath id="id1"><path d="M 130 99 L 638 99 L 638 670.507812 L 130 670.507812 Z M 130 99 " clip-rule="nonzero"/></clipPath></defs><g clip-path="url(#id1)"><path fill="rgb(24.708557%, 50.979614%, 72.549438%)" d="M 384.054688 670.429688 C 376.171875 670.429688 368.824219 668.332031 362.011719 664.667969 L 292.210938 623.207031 C 281.714844 617.445312 286.964844 615.347656 290.113281 614.296875 C 304.28125 609.566406 306.90625 608.515625 321.601562 600.121094 C 323.175781 599.070312 325.273438 599.605469 326.847656 600.65625 L 380.371094 632.652344 C 382.46875 633.699219 385.101562 633.699219 386.6875 632.652344 L 596.066406 511.457031 C 598.167969 510.410156 599.214844 508.308594 599.214844 505.675781 L 599.214844 263.785156 C 599.214844 261.164062 598.167969 259.066406 596.066406 258.015625 L 386.6875 137.332031 C 384.589844 136.28125 381.953125 136.28125 380.371094 137.332031 L 170.988281 258.015625 C 168.882812 259.066406 167.832031 261.6875 167.832031 263.789062 L 167.832031 505.679688 C 167.832031 507.777344 168.882812 510.410156 170.980469 511.460938 L 228.183594 544.503906 C 259.148438 560.246094 278.566406 541.890625 278.566406 523.519531 L 278.566406 284.773438 C 278.566406 281.628906 281.191406 278.480469 284.863281 278.480469 L 311.628906 278.480469 C 314.78125 278.480469 317.929688 281.105469 317.929688 284.777344 L 317.929688 523.519531 C 317.929688 564.980469 295.359375 589.117188 256 589.117188 C 243.929688 589.117188 234.484375 589.117188 207.71875 575.988281 L 152.613281 544.507812 C 138.96875 536.648438 130.570312 521.957031 130.570312 506.214844 L 130.570312 264.324219 C 130.570312 248.574219 138.96875 233.882812 152.613281 226.011719 L 362.011719 104.804688 C 375.121094 97.457031 392.984375 97.457031 406.09375 104.804688 L 615.496094 226.011719 C 629.140625 233.882812 637.535156 248.574219 637.535156 264.316406 L 637.535156 506.207031 C 637.535156 521.949219 629.140625 536.636719 615.496094 544.5 L 406.09375 665.710938 C 399.28125 668.859375 391.402344 670.425781 384.054688 670.425781 Z M 448.613281 504.113281 C 356.765625 504.113281 337.871094 462.117188 337.871094 426.4375 C 337.871094 423.289062 340.484375 420.144531 344.167969 420.144531 L 371.457031 420.144531 C 374.605469 420.144531 377.222656 422.242188 377.222656 425.390625 C 381.417969 453.207031 393.5 466.851562 449.128906 466.851562 C 493.210938 466.851562 512.101562 456.871094 512.101562 433.269531 C 512.101562 419.628906 506.855469 409.648438 438.117188 402.835938 C 380.90625 397.054688 345.21875 384.464844 345.21875 338.824219 C 345.21875 296.316406 380.90625 271.132812 440.730469 271.132812 C 507.902344 271.132812 540.976562 294.21875 545.171875 344.585938 C 545.171875 346.171875 544.640625 347.734375 543.589844 349.320312 C 542.539062 350.367188 540.976562 351.417969 539.390625 351.417969 L 512.101562 351.417969 C 509.488281 351.417969 506.855469 349.320312 506.339844 346.6875 C 500.042969 317.839844 483.761719 308.394531 440.730469 308.394531 C 392.449219 308.394531 386.6875 325.183594 386.6875 337.777344 C 386.6875 352.984375 393.5 357.714844 458.574219 366.109375 C 523.132812 374.503906 553.570312 386.5625 553.570312 431.6875 C 553.035156 477.859375 515.25 504.113281 448.613281 504.113281 Z M 448.613281 504.113281 " fill-opacity="1" fill-rule="nonzero"/></g></svg>