<svg xmlns="http://www.w3.org/2000/svg" xmlns:xlink="http://www.w3.org/1999/xlink" width="1024" zoomAndPan="magnify" viewBox="0 0 768 767.999994" height="1024" preserveAspectRatio="xMidYMid meet" version="1.0"><defs><g/></defs><g fill="rgb(24.708557%, 50.979614%, 72.549438%)" fill-opacity="1"><g transform="translate(32.613283, 466.875935)"><g><path d="M 131.769531 -236.585938 C 63.554688 -236.585938 11.644531 -181.015625 11.644531 -116.464844 C 11.644531 -51.910156 63.554688 3.660156 131.769531 3.660156 C 196.324219 3.660156 248.898438 -51.910156 248.898438 -116.464844 C 248.898438 -181.015625 196.324219 -236.585938 131.769531 -236.585938 Z M 131.769531 -22.960938 C 78.53125 -22.960938 38.265625 -66.21875 38.265625 -116.464844 C 38.265625 -166.710938 78.53125 -209.96875 131.769531 -209.96875 C 182.015625 -209.96875 222.277344 -166.710938 222.277344 -116.464844 C 222.277344 -66.21875 182.015625 -22.960938 131.769531 -22.960938 Z M 131.769531 -22.960938 "/></g></g></g><g fill="rgb(24.708557%, 50.979614%, 72.549438%)" fill-opacity="1"><g transform="translate(293.157997, 466.875935)"><g><path d="M 131.769531 -236.585938 C 63.554688 -236.585938 11.644531 -181.015625 11.644531 -116.464844 C 11.644531 -51.910156 63.554688 3.660156 131.769531 3.660156 C 196.324219 3.660156 248.898438 -51.910156 248.898438 -116.464844 C 248.898438 -181.015625 196.324219 -236.585938 131.769531 -236.585938 Z M 131.769531 -22.960938 C 78.53125 -22.960938 38.265625 -66.21875 38.265625 -116.464844 C 38.265625 -166.710938 78.53125 -209.96875 131.769531 -209.96875 C 182.015625 -209.96875 222.277344 -166.710938 222.277344 -116.464844 C 222.277344 -66.21875 182.015625 -22.960938 131.769531 -22.960938 Z M 131.769531 -22.960938 "/></g></g></g><g fill="rgb(24.708557%, 50.979614%, 72.549438%)" fill-opacity="1"><g transform="translate(553.702712, 466.875935)"><g><path d="M 51.578125 -87.847656 L 87.847656 -87.847656 C 140.753906 -87.847656 173.03125 -113.46875 173.03125 -161.050781 C 173.03125 -211.628906 136.097656 -232.925781 86.515625 -232.925781 L 24.625 -232.925781 L 24.625 0 L 51.578125 0 Z M 86.847656 -112.46875 L 51.578125 -112.46875 L 51.578125 -207.636719 L 86.183594 -207.636719 C 142.085938 -207.636719 147.742188 -176.691406 147.742188 -160.71875 C 147.742188 -133.101562 131.105469 -112.46875 86.847656 -112.46875 Z M 86.847656 -112.46875 "/></g></g></g></svg>