<svg xmlns="http://www.w3.org/2000/svg" xmlns:xlink="http://www.w3.org/1999/xlink" width="1024" zoomAndPan="magnify" viewBox="0 0 768 767.999994" height="1024" preserveAspectRatio="xMidYMid meet" version="1.0"><defs><clipPath id="id1"><path d="M 79.375 69.191406 L 695.875 69.191406 L 695.875 685.691406 L 79.375 685.691406 Z M 79.375 69.191406 " clip-rule="nonzero"/></clipPath></defs><g clip-path="url(#id1)"><path fill="rgb(24.708557%, 50.979614%, 72.549438%)" d="M 79.375 120.566406 L 79.375 634.316406 C 79.375 662.699219 102.367188 685.691406 130.75 685.691406 L 644.5 685.691406 C 672.886719 685.691406 695.875 662.699219 695.875 634.316406 L 695.875 120.566406 C 695.875 92.179688 672.886719 69.191406 644.5 69.191406 L 130.75 69.191406 C 102.367188 69.191406 79.375 92.179688 79.375 120.566406 Z M 79.375 120.566406 " fill-opacity="1" fill-rule="nonzero"/><path fill="rgb(100%, 100%, 100%)" d="M 644.5 94.878906 C 658.65625 94.878906 670.1875 106.410156 670.1875 120.566406 L 670.1875 634.316406 C 670.1875 648.46875 658.65625 660.003906 644.5 660.003906 L 130.75 660.003906 C 116.597656 660.003906 105.0625 648.46875 105.0625 634.316406 L 105.0625 120.566406 C 105.0625 106.410156 116.597656 94.878906 130.75 94.878906 Z M 644.5 69.191406 L 130.75 69.191406 C 102.390625 69.191406 79.375 92.179688 79.375 120.566406 L 79.375 634.316406 C 79.375 662.699219 102.390625 685.691406 130.75 685.691406 L 644.5 685.691406 C 672.859375 685.691406 695.875 662.699219 695.875 634.316406 L 695.875 120.566406 C 695.875 92.179688 672.859375 69.191406 644.5 69.191406 Z M 644.5 69.191406 " fill-opacity="1" fill-rule="nonzero"/></g><path fill="rgb(100%, 100%, 100%)" d="M 478.945312 493.085938 C 456.441406 493.085938 437.332031 488.382812 426.285156 482.039062 C 424.617188 481.191406 424.230469 479.933594 424.230469 477.800781 L 424.230469 440.117188 C 424.230469 437.550781 425.464844 436.703125 427.160156 437.960938 C 443.1875 448.570312 461.886719 453.21875 478.84375 453.21875 C 499.1875 453.21875 507.664062 444.742188 507.664062 433.285156 C 507.664062 423.960938 501.753906 415.894531 475.886719 402.332031 C 439.410156 384.863281 424.152344 367.140625 424.152344 337.417969 C 424.152344 304.359375 449.996094 276.796875 494.921875 276.796875 C 517.011719 276.796875 532.527344 280.1875 541.003906 283.988281 C 543.113281 285.273438 543.574219 287.378906 543.574219 289.074219 L 543.574219 324.265625 C 543.574219 326.398438 542.289062 327.683594 539.722656 326.835938 C 528.316406 320.054688 511.464844 315.789062 494.949219 315.789062 L 495.050781 315.894531 C 474.707031 315.894531 467.925781 326.066406 467.925781 334.542969 C 467.925781 343.867188 472.546875 350.210938 499.699219 364.210938 C 539.976562 383.734375 552.667969 402.355469 552.667969 429.894531 C 552.667969 470.996094 521.328125 493.085938 478.945312 493.085938 Z M 478.945312 493.085938 " fill-opacity="1" fill-rule="nonzero"/><path fill="rgb(100%, 100%, 100%)" d="M 300.339844 205.695312 C 274.910156 205.695312 250.660156 206.128906 234.117188 206.976562 C 231.960938 206.976562 228.363281 208.238281 228.363281 209.957031 L 228.390625 209.957031 L 228.390625 486.304688 C 228.390625 488.4375 229.210938 489.207031 231.34375 489.207031 L 271.003906 489.207031 C 273.109375 489.207031 273.957031 488.359375 273.957031 486.226562 L 273.957031 387.535156 C 280.765625 387.535156 284.105469 387.972656 293.867188 387.972656 C 351.921875 387.972656 399.238281 359.972656 399.238281 294.726562 C 399.238281 244.738281 371.546875 205.695312 300.339844 205.695312 Z M 294.765625 346.820312 C 284.566406 346.820312 279.890625 346.820312 273.984375 346.410156 L 273.984375 247.230469 C 278.660156 246.792969 288.394531 246.382812 298.566406 246.382812 C 332.886719 246.382812 353.074219 262.925781 353.074219 295.546875 C 353.074219 336.238281 324.820312 346.820312 294.765625 346.820312 Z M 294.765625 346.820312 " fill-opacity="1" fill-rule="nonzero"/></svg>