<svg xmlns="http://www.w3.org/2000/svg" xmlns:xlink="http://www.w3.org/1999/xlink" width="1024" zoomAndPan="magnify" viewBox="0 0 768 767.999994" height="1024" preserveAspectRatio="xMidYMid meet" version="1.0"><defs><clipPath id="id1"><path d="M 94 90.496094 L 657 90.496094 L 657 677.746094 L 94 677.746094 Z M 94 90.496094 " clip-rule="nonzero"/></clipPath></defs><g clip-path="url(#id1)"><path fill="rgb(100%, 100%, 100%)" d="M 656.167969 448.054688 C 653.722656 436.988281 643.6875 424.082031 623.441406 424.082031 C 619.304688 424.082031 614.777344 424.601562 609.625 425.671875 C 600.175781 427.617188 592.128906 428.566406 585.042969 428.886719 C 640.203125 334.925781 676.011719 204.410156 640.550781 159.097656 C 593.824219 99.398438 530.921875 90.484375 497.59375 90.484375 L 494.457031 90.496094 C 482.058594 90.699219 469.195312 92.21875 456.246094 95.023438 L 408.425781 105.351562 C 401.914062 104.539062 395.28125 103.964844 388.367188 103.84375 L 387.753906 103.84375 L 385.722656 103.832031 C 364.464844 103.832031 345.070312 108.34375 327.785156 116.816406 L 311.089844 110.238281 C 288.132812 101.1875 253.59375 90.417969 219.425781 90.417969 C 217.503906 90.417969 215.59375 90.457031 213.671875 90.523438 C 180.011719 91.738281 151.105469 104.511719 130.058594 127.453125 C 103.789062 156.097656 91.832031 197.992188 94.542969 251.992188 C 94.675781 254.78125 127.347656 530.933594 219.960938 530.933594 L 220.292969 530.933594 L 221.148438 530.921875 C 233.171875 530.628906 244.636719 525.796875 255.355469 516.546875 C 263.535156 522.6875 274.121094 526.316406 283.984375 527.757812 C 290.496094 529.292969 302.214844 531.46875 316.253906 531.46875 C 333.390625 531.46875 348.847656 527.957031 362.167969 521.621094 C 362.152344 533.363281 362.085938 548.230469 361.953125 567.238281 L 361.941406 568.238281 L 362.007812 569.238281 C 363.300781 588.179688 366.570312 605.25 371.496094 618.636719 C 385.523438 656.792969 409.746094 677.8125 439.710938 677.8125 C 440.953125 677.8125 442.21875 677.773438 443.5 677.695312 C 468.140625 676.171875 493.109375 662.332031 510.289062 640.699219 C 528.878906 617.273438 533.175781 592.554688 534.832031 573.617188 L 534.9375 572.457031 L 534.9375 516.839844 L 536.3125 516.972656 L 542.132812 517.480469 L 542.695312 517.535156 L 543.253906 517.5625 C 544.910156 517.640625 546.617188 517.667969 548.339844 517.667969 C 568.453125 517.667969 593.210938 512.449219 609.945312 504.667969 C 625.949219 497.25 662.519531 476.855469 656.167969 448.054688 Z M 656.167969 448.054688 " fill-opacity="1" fill-rule="nonzero"/></g><path fill="rgb(24.708557%, 50.979614%, 72.549438%)" d="M 508.246094 504.242188 C 508.246094 501.503906 508.40625 499.222656 508.484375 496.699219 C 508.351562 493.351562 508.246094 490.894531 508.246094 490.894531 C 508.246094 490.894531 508.40625 490.773438 508.671875 490.601562 C 510.660156 454.925781 520.496094 441.179688 531.027344 433.34375 C 529.558594 431.304688 527.867188 429.101562 526.277344 427.003906 C 521.832031 421.171875 516.292969 413.9375 510.367188 404.664062 L 509.273438 402.554688 C 508.378906 400.367188 506.21875 396.589844 503.46875 391.625 C 487.679688 363.0625 454.820312 303.644531 477.308594 266.113281 C 487.160156 249.667969 505.628906 240.191406 532.308594 237.855469 C 521.40625 206.851562 480.550781 132.070312 387.925781 130.539062 C 387.898438 130.539062 387.871094 130.539062 387.847656 130.539062 C 307.21875 129.230469 280.726562 202.503906 272.105469 246.277344 C 283.984375 241.246094 297.542969 238.191406 309.957031 238.191406 C 310.140625 238.191406 310.34375 238.191406 310.53125 238.191406 C 341.09375 238.417969 362.113281 254.726562 368.226562 282.957031 C 372.699219 303.667969 374.847656 321.792969 374.792969 338.382812 C 374.660156 374.671875 367.347656 393.757812 360.886719 410.601562 L 358.832031 416.046875 C 357.175781 420.503906 355.425781 424.65625 353.773438 428.554688 C 352.089844 432.53125 350.609375 436.066406 349.527344 439.257812 C 355.988281 440.726562 361.058594 442.792969 364.542969 444.328125 L 366.558594 445.210938 C 367.1875 445.476562 367.8125 445.785156 368.386719 446.128906 C 379.703125 453.019531 386.75 463.601562 388.261719 475.933594 C 389.074219 482.582031 388.941406 527.890625 388.660156 567.425781 C 389.820312 584.574219 392.730469 598.976562 396.574219 609.414062 C 402.035156 624.28125 415.675781 652.667969 441.875 651.039062 C 460.15625 649.90625 477.734375 638.777344 489.402344 624.09375 C 501.917969 608.332031 506.539062 590.902344 508.273438 571.269531 L 508.273438 504.242188 Z M 508.246094 504.242188 " fill-opacity="1" fill-rule="nonzero"/><path fill="rgb(24.708557%, 50.979614%, 72.549438%)" d="M 269.527344 436.402344 C 248 413.9375 237.511719 383.722656 241.449219 355.574219 C 245.25 328.414062 243.101562 301.828125 241.941406 287.535156 C 241.554688 282.769531 241.300781 279.21875 241.3125 277.257812 C 241.3125 277.148438 241.339844 277.054688 241.355469 276.949219 C 241.355469 276.894531 241.328125 276.855469 241.328125 276.800781 C 242.941406 236.484375 258.492188 172.871094 301.292969 135.0625 C 280.445312 126.855469 246.492188 116.03125 214.621094 117.191406 C 164.679688 119.007812 116.335938 153.546875 121.195312 250.65625 C 123.023438 287.09375 164.199219 505.617188 220.492188 504.242188 C 228.542969 504.042969 236.894531 498.875 245.476562 488.546875 C 259.050781 472.222656 272.238281 457.421875 281.621094 447.117188 C 277.417969 443.929688 273.359375 440.40625 269.527344 436.402344 Z M 561.9375 247.066406 C 562.140625 249.121094 561.964844 250.882812 561.644531 252.511719 C 562.058594 264.789062 560.738281 276.710938 559.390625 288.242188 C 558.402344 296.730469 557.386719 305.496094 557.109375 314.292969 C 556.828125 322.902344 558.042969 331.402344 559.324219 340.398438 C 562.328125 361.460938 565.449219 385.230469 549.113281 412.964844 C 552.117188 416.914062 554.757812 420.585938 556.867188 424.136719 C 618.394531 324.371094 643.191406 205.773438 619.53125 175.542969 C 583.722656 129.789062 534.152344 116.550781 494.886719 117.191406 C 482.59375 117.390625 471.421875 119.046875 461.878906 121.113281 C 529.628906 153.949219 559.804688 224.308594 561.9375 247.066406 Z M 615.019531 451.804688 C 579.449219 459.144531 562.339844 455.234375 554.039062 450.121094 C 552.703125 451.082031 551.367188 451.898438 550.128906 452.65625 C 545.164062 455.660156 537.300781 460.4375 535.378906 489.789062 C 536.488281 490 537.460938 490.121094 538.664062 490.375 L 544.46875 490.894531 C 562.085938 491.695312 585.164062 486.757812 598.695312 480.472656 C 627.859375 466.9375 643.753906 445.878906 615.019531 451.804688 Z M 361.742188 479.136719 C 361.246094 475.160156 359.097656 471.941406 355.171875 469.367188 L 353.730469 468.738281 C 348.914062 466.617188 343.457031 464.203125 334.738281 464.203125 L 334.6875 464.203125 C 332.992188 464.335938 331.308594 464.457031 329.613281 464.457031 C 328.921875 464.457031 328.242188 464.363281 327.546875 464.335938 C 321.21875 469.207031 312.222656 472.972656 289.960938 477.546875 C 250.191406 487.679688 273.667969 499.636719 288.921875 501.492188 C 303.683594 505.191406 338.769531 509.6875 362.074219 490.695312 C 362.007812 484.714844 361.902344 480.605469 361.742188 479.136719 Z M 361.742188 479.136719 " fill-opacity="1" fill-rule="nonzero"/><path fill="rgb(24.708557%, 50.979614%, 72.549438%)" d="M 343.828125 297.382812 C 339.933594 301.414062 333.777344 304.9375 326.984375 303.84375 C 315.933594 302.054688 307.460938 288.722656 308.074219 283.714844 C 308.660156 278.722656 318.097656 276.121094 329.132812 277.910156 C 332.964844 278.539062 336.449219 279.617188 339.386719 280.953125 C 335.113281 271.769531 327.386719 266.472656 315.601562 265.179688 C 294.714844 262.855469 272.546875 273.773438 268.085938 279.820312 C 268.179688 281.289062 268.355469 283.167969 268.527344 285.382812 C 269.769531 300.691406 272.066406 329.214844 267.859375 359.285156 C 265.085938 379.105469 273.105469 401.578125 288.773438 417.941406 C 298.878906 428.488281 310.675781 435.160156 322.316406 437.136719 C 323.796875 430.753906 326.4375 424.535156 329.160156 418.117188 C 330.667969 414.578125 332.269531 410.816406 333.777344 406.746094 L 335.941406 401.046875 C 341.855469 385.628906 347.953125 369.679688 348.074219 338.277344 C 348.125 326.199219 346.644531 312.410156 343.828125 297.382812 Z M 532.898438 344.175781 C 531.507812 334.445312 530.082031 324.371094 530.429688 313.4375 C 530.734375 303.535156 531.828125 294.191406 532.882812 285.15625 C 533.710938 278.042969 534.351562 271.210938 534.726562 264.46875 C 517.523438 265.898438 506.097656 270.863281 500.679688 279.257812 C 502.921875 278.496094 505.457031 277.898438 508.257812 277.535156 C 520.164062 275.988281 528.851562 279.417969 529.855469 286.039062 C 530.589844 290.882812 526.476562 295.449219 524.675781 297.195312 C 520.976562 300.785156 516.320312 303.09375 511.582031 303.710938 C 510.726562 303.816406 509.859375 303.871094 509.019531 303.871094 C 504.308594 303.871094 499.8125 302.253906 496.355469 299.867188 C 497.847656 326.199219 517.269531 361.421875 526.824219 378.703125 C 528.867188 382.402344 530.441406 385.351562 531.75 387.886719 C 536.996094 372.953125 535.058594 359.339844 532.898438 344.175781 Z M 532.898438 344.175781 " fill-opacity="1" fill-rule="nonzero"/></svg>