<svg xmlns="http://www.w3.org/2000/svg" xmlns:xlink="http://www.w3.org/1999/xlink" width="1024" zoomAndPan="magnify" viewBox="0 0 768 767.999994" height="1024" preserveAspectRatio="xMidYMid meet" version="1.0"><defs><clipPath id="id1"><path d="M 76.800781 71.882812 L 691.050781 71.882812 L 691.050781 686.132812 L 76.800781 686.132812 Z M 76.800781 71.882812 " clip-rule="nonzero"/></clipPath></defs><g clip-path="url(#id1)"><path fill="rgb(24.708557%, 50.979614%, 72.549438%)" d="M 76.800781 123.070312 L 76.800781 634.945312 C 76.800781 663.226562 99.707031 686.132812 127.988281 686.132812 L 639.863281 686.132812 C 668.144531 686.132812 691.050781 663.226562 691.050781 634.945312 L 691.050781 123.070312 C 691.050781 94.789062 668.144531 71.882812 639.863281 71.882812 L 127.988281 71.882812 C 99.707031 71.882812 76.800781 94.789062 76.800781 123.070312 Z M 76.800781 123.070312 " fill-opacity="1" fill-rule="nonzero"/><path fill="rgb(100%, 100%, 100%)" d="M 639.863281 97.476562 C 653.964844 97.476562 665.457031 108.96875 665.457031 123.070312 L 665.457031 634.945312 C 665.457031 649.046875 653.964844 660.539062 639.863281 660.539062 L 127.988281 660.539062 C 113.886719 660.539062 102.394531 649.046875 102.394531 634.945312 L 102.394531 123.070312 C 102.394531 108.96875 113.886719 97.476562 127.988281 97.476562 Z M 639.863281 71.882812 L 127.988281 71.882812 C 99.730469 71.882812 76.800781 94.789062 76.800781 123.070312 L 76.800781 634.945312 C 76.800781 663.226562 99.730469 686.132812 127.988281 686.132812 L 639.863281 686.132812 C 668.117188 686.132812 691.050781 663.226562 691.050781 634.945312 L 691.050781 123.070312 C 691.050781 94.789062 668.117188 71.882812 639.863281 71.882812 Z M 639.863281 71.882812 " fill-opacity="1" fill-rule="nonzero"/></g><path fill="rgb(100%, 100%, 100%)" d="M 306.375 207.835938 C 281.039062 207.835938 256.980469 208.273438 240.523438 209.117188 C 238.398438 209.117188 237.964844 210.394531 237.964844 212.085938 L 237.964844 487.371094 C 237.964844 489.496094 238.808594 490.339844 240.933594 490.339844 L 280.449219 490.339844 C 282.546875 490.339844 283.394531 489.496094 283.394531 487.371094 L 283.394531 389.015625 C 290.148438 389.015625 293.527344 389.449219 303.253906 389.449219 C 361.09375 389.449219 408.164062 361.554688 408.164062 296.542969 C 408.164062 246.714844 377.320312 207.835938 306.375 207.835938 Z M 304.097656 348.472656 C 293.964844 348.472656 289.304688 348.472656 283.394531 348.066406 L 283.394531 249.246094 C 288.050781 248.8125 297.75 248.402344 307.886719 248.402344 C 342.105469 248.402344 362.117188 264.886719 362.117188 297.390625 C 362.117188 337.929688 334.070312 348.472656 304.097656 348.472656 Z M 304.097656 348.472656 " fill-opacity="1" fill-rule="nonzero"/><path fill="rgb(100%, 100%, 100%)" d="M 544.449219 318.503906 C 544.449219 320.601562 543.785156 321.039062 541.660156 321.039062 C 538.921875 320.859375 535.746094 320.757812 532.523438 320.757812 C 518.90625 320.757812 505.75 322.675781 493.261719 326.15625 L 493.261719 487.371094 C 493.261719 489.496094 492.390625 490.339844 490.292969 490.339844 L 450.109375 490.339844 C 448.011719 490.339844 447.167969 489.496094 447.167969 487.371094 L 447.191406 324.824219 C 447.191406 321.882812 447.191406 314.28125 445.9375 299.921875 C 445.9375 297.800781 446.21875 297.363281 447.910156 296.542969 C 475.652344 285.566406 507.773438 279.0625 541.402344 278.808594 L 541.503906 278.808594 C 543.605469 278.808594 544.449219 279.21875 544.449219 281.34375 Z M 544.449219 318.503906 " fill-opacity="1" fill-rule="nonzero"/></svg>