<svg xmlns="http://www.w3.org/2000/svg" xmlns:xlink="http://www.w3.org/1999/xlink" width="1024" zoomAndPan="magnify" viewBox="0 0 768 767.999994" height="1024" preserveAspectRatio="xMidYMid meet" version="1.0"><path fill="rgb(24.708557%, 50.979614%, 72.549438%)" d="M 575.890625 290.761719 C 569.722656 288.632812 563.324219 286.617188 556.714844 284.714844 C 557.808594 280.289062 558.808594 275.917969 559.695312 271.625 C 574.191406 201.121094 564.722656 144.320312 532.300781 125.621094 C 501.210938 107.691406 450.382812 126.386719 399.042969 171.082031 C 394.109375 175.382812 389.152344 179.929688 384.21875 184.699219 C 380.914062 181.542969 377.632812 178.496094 374.351562 175.578125 C 320.546875 127.789062 266.617188 107.644531 234.234375 126.398438 C 203.183594 144.382812 193.988281 197.78125 207.058594 264.597656 C 208.320312 271.054688 209.792969 277.644531 211.460938 284.347656 C 203.828125 286.515625 196.460938 288.824219 189.414062 291.28125 C 126.335938 313.28125 86.050781 347.765625 86.050781 383.535156 C 86.050781 420.464844 129.296875 457.53125 194.996094 480 C 200.179688 481.769531 205.558594 483.445312 211.101562 485.027344 C 209.304688 492.269531 207.738281 499.371094 206.425781 506.308594 C 193.964844 571.96875 203.695312 624.101562 234.664062 641.960938 C 266.648438 660.421875 320.335938 641.445312 372.605469 595.742188 C 376.75 592.132812 380.890625 588.289062 385.035156 584.285156 C 390.433594 589.457031 395.808594 594.367188 401.136719 598.976562 C 451.78125 642.566406 501.792969 660.167969 532.722656 642.261719 C 564.675781 623.75 575.078125 567.730469 561.578125 499.605469 C 560.554688 494.386719 559.34375 489.078125 558.019531 483.679688 C 561.789062 482.5625 565.488281 481.394531 569.097656 480.207031 C 637.402344 457.554688 681.828125 420.976562 681.828125 383.535156 C 681.828125 347.636719 640.238281 312.921875 575.890625 290.761719 Z M 561.089844 456.039062 C 557.832031 457.113281 554.480469 458.160156 551.082031 459.160156 C 543.542969 435.296875 533.371094 409.894531 520.898438 383.652344 C 532.792969 358.039062 542.566406 332.972656 549.894531 309.246094 C 555.992188 311.011719 561.90625 312.871094 567.605469 314.835938 C 622.738281 333.824219 656.367188 361.90625 656.367188 383.535156 C 656.367188 406.5625 620.0625 436.484375 561.089844 456.039062 Z M 536.609375 504.539062 C 542.589844 534.667969 543.425781 561.910156 539.46875 583.214844 C 535.933594 602.355469 528.789062 615.113281 519.96875 620.210938 C 501.1875 631.085938 461.042969 616.953125 417.753906 579.675781 C 412.773438 575.390625 407.769531 570.828125 402.765625 566.007812 C 419.546875 547.636719 436.328125 526.285156 452.710938 502.5625 C 481.5 500.023438 508.703125 495.832031 533.394531 490.128906 C 534.605469 495.039062 535.675781 499.835938 536.609375 504.539062 Z M 289.175781 618.328125 C 270.832031 624.824219 256.21875 625.007812 247.390625 619.910156 C 228.597656 609.058594 220.785156 567.195312 231.441406 511.058594 C 232.660156 504.632812 234.113281 498.019531 235.789062 491.269531 C 260.191406 496.671875 287.207031 500.558594 316.074219 502.886719 C 332.5625 526.101562 349.832031 547.429688 367.214844 566.101562 C 363.421875 569.78125 359.628906 573.273438 355.859375 576.554688 C 332.75 596.789062 309.589844 611.132812 289.175781 618.328125 Z M 203.234375 455.902344 C 174.183594 445.960938 150.195312 433.058594 133.75 418.949219 C 118.972656 406.308594 111.511719 393.734375 111.511719 383.535156 C 111.511719 361.835938 143.855469 334.140625 197.796875 315.328125 C 204.34375 313.042969 211.195312 310.890625 218.304688 308.871094 C 225.761719 333.132812 235.539062 358.507812 247.34375 384.140625 C 235.386719 410.171875 225.46875 435.945312 217.941406 460.511719 C 212.871094 459.042969 207.960938 457.507812 203.234375 455.902344 Z M 232.042969 259.710938 C 220.847656 202.460938 228.28125 159.277344 246.996094 148.4375 C 266.925781 136.894531 311 153.351562 357.441406 194.621094 C 360.421875 197.257812 363.398438 200.019531 366.402344 202.875 C 349.085938 221.472656 331.980469 242.640625 315.640625 265.710938 C 287.621094 268.3125 260.796875 272.484375 236.140625 278.074219 C 234.589844 271.832031 233.214844 265.703125 232.042969 259.710938 Z M 489.019531 323.195312 C 483.128906 313.011719 477.078125 303.0625 470.910156 293.386719 C 489.925781 295.792969 508.125 298.984375 525.230469 302.890625 C 520.109375 319.351562 513.710938 336.566406 506.167969 354.222656 C 500.769531 343.949219 495.046875 333.601562 489.019531 323.195312 Z M 384.222656 221.074219 C 395.972656 233.796875 407.726562 248.003906 419.292969 263.417969 C 407.632812 262.867188 395.835938 262.582031 383.941406 262.582031 C 372.167969 262.582031 360.460938 262.859375 348.871094 263.402344 C 360.4375 248.132812 372.304688 233.945312 384.222656 221.074219 Z M 278.753906 323.375 C 272.867188 333.589844 267.257812 343.882812 261.9375 354.199219 C 254.527344 336.609375 248.183594 319.316406 243.007812 302.617188 C 260.003906 298.8125 278.132812 295.703125 297.019531 293.34375 C 290.761719 303.109375 284.660156 313.125 278.753906 323.371094 Z M 297.5625 475.527344 C 278.046875 473.363281 259.648438 470.40625 242.65625 466.703125 C 247.917969 449.707031 254.394531 432.058594 261.964844 414.082031 C 267.296875 424.398438 272.929688 434.691406 278.855469 444.933594 L 278.859375 444.933594 C 284.890625 455.367188 291.144531 465.5625 297.5625 475.527344 Z M 384.917969 547.777344 C 372.863281 534.761719 360.832031 520.351562 349.082031 504.867188 C 360.484375 505.308594 372.121094 505.542969 383.941406 505.542969 C 396.089844 505.542969 408.097656 505.261719 419.898438 504.75 C 408.308594 520.511719 396.578125 534.949219 384.917969 547.777344 Z M 506.402344 413.175781 C 514.363281 431.335938 521.085938 448.894531 526.417969 465.609375 C 509.148438 469.546875 490.484375 472.710938 470.84375 475.085938 C 477.03125 465.285156 483.128906 455.15625 489.132812 444.75 C 495.207031 434.222656 500.957031 423.675781 506.402344 413.175781 Z M 467.070312 432.035156 C 457.761719 448.195312 448.199219 463.609375 438.492188 478.160156 C 420.828125 479.417969 402.558594 480.070312 383.941406 480.070312 C 365.394531 480.070312 347.359375 479.511719 329.996094 478.371094 C 319.898438 463.632812 310.132812 448.171875 300.878906 432.175781 L 300.882812 432.175781 C 291.652344 416.226562 283.160156 400.136719 275.460938 384.140625 C 283.15625 368.121094 291.628906 352.011719 300.804688 336.089844 L 300.804688 336.09375 C 310.003906 320.132812 319.6875 304.738281 329.695312 290.082031 C 347.40625 288.742188 365.582031 288.042969 383.941406 288.042969 C 402.398438 288.042969 420.574219 288.75 438.285156 290.097656 C 448.152344 304.648438 457.761719 319.992188 467.003906 335.957031 C 476.335938 352.101562 484.921875 368.097656 492.671875 383.792969 C 484.945312 399.742188 476.378906 415.898438 467.070312 432.035156 Z M 519.574219 147.675781 C 539.542969 159.1875 547.292969 205.605469 534.75 266.480469 C 533.957031 270.363281 533.050781 274.320312 532.070312 278.328125 C 507.355469 272.621094 480.523438 268.378906 452.433594 265.738281 C 436.050781 242.417969 419.082031 221.210938 402.046875 202.855469 C 406.632812 198.449219 411.21875 194.25 415.757812 190.28125 C 459.742188 151.988281 500.863281 136.867188 519.574219 147.675781 Z M 383.941406 330.296875 C 413.3125 330.296875 437.144531 354.121094 437.144531 383.527344 C 437.144531 412.914062 413.3125 436.753906 383.941406 436.753906 C 354.574219 436.753906 330.742188 412.914062 330.742188 383.527344 C 330.742188 354.121094 354.574219 330.296875 383.941406 330.296875 Z M 383.941406 330.296875 " fill-opacity="1" fill-rule="nonzero"/></svg>