<svg xmlns="http://www.w3.org/2000/svg" xmlns:xlink="http://www.w3.org/1999/xlink" width="1024" zoomAndPan="magnify" viewBox="0 0 768 767.999994" height="1024" preserveAspectRatio="xMidYMid meet" version="1.0"><defs><clipPath id="id1"><path d="M 95.765625 95.765625 L 672.515625 95.765625 L 672.515625 672.515625 L 95.765625 672.515625 Z M 95.765625 95.765625 " clip-rule="nonzero"/></clipPath></defs><g clip-path="url(#id1)"><path fill="rgb(24.708557%, 50.979614%, 72.549438%)" d="M 528.285156 95.765625 L 528.285156 591.117188 L 95.765625 526.863281 L 528.285156 672.515625 L 672.472656 612.519531 L 672.472656 164.683594 L 672.515625 164.667969 L 672.472656 164.570312 L 672.472656 155.75 Z M 376.929688 180.15625 L 244.445312 311.109375 L 164.6875 251.039062 L 131.816406 262.019531 L 212.960938 342.238281 L 131.816406 422.441406 L 164.6875 433.433594 L 244.445312 373.347656 L 244.449219 373.347656 L 376.910156 504.289062 L 456.257812 470.585938 L 456.257812 213.863281 Z M 376.910156 273.59375 L 376.910156 410.859375 L 285.777344 342.214844 Z M 376.910156 273.59375 " fill-opacity="1" fill-rule="nonzero"/></g></svg>